<svg width="107" height="353" viewBox="0 0 107 353" fill="none" xmlns="http://www.w3.org/2000/svg">
<path d="M16.2339 304.923L3.26665 313.541L17.3932 308.871C16.9746 307.636 16.5882 306.32 16.2339 304.923Z" fill="#111111"/>
<path d="M17.3117 308.604L7.98757 321.407L18.8581 312.734C18.3441 311.526 17.8135 310.125 17.3117 308.604Z" fill="#111111"/>
<path d="M42.8834 333.139L42.2478 332.135L31.0884 339.199L31.724 340.203L42.8834 333.139Z" fill="#111111"/>
<path d="M31.1974 344.484L30.0273 344.291C30.4278 341.891 30.7661 340.591 31.0152 339.846C29.8811 339.846 27.6391 339.92 25.5962 340.037L25.5336 338.849C32.2674 338.488 32.3212 338.659 32.4825 339.173L32.2124 339.9C32.2673 339.856 32.3045 339.833 32.3045 339.833C32.0593 340.167 31.5374 342.519 31.1974 344.484Z" fill="#111111"/>
<path d="M32.2644 339.852L31.5311 338.917L25.5989 343.569L26.3322 344.504L32.2644 339.852Z" fill="#111111"/>
<path d="M49.4756 333.992L48.5603 333.234L40.1368 343.407L41.052 344.165L49.4756 333.992Z" fill="#111111"/>
<path d="M40.7158 348.556C40.3544 346.163 40.2574 344.803 40.2896 344.037C39.2049 344.384 37.1004 345.151 35.2094 345.9L34.783 344.802C41.0655 342.368 41.1759 342.515 41.4875 342.957L41.4553 343.722C41.4891 343.661 41.5052 343.62 41.5052 343.62C41.3654 344.043 41.6088 346.427 41.8965 348.416L40.7158 348.556Z" fill="#111111"/>
<path d="M41.4696 343.655L40.4827 342.993L36.284 349.255L37.271 349.916L41.4696 343.655Z" fill="#111111"/>
<path d="M21.1766 317.657C21.1766 317.657 5.64135 290.365 23.7045 277.556C42.7802 264.015 57.4948 278.532 61.1019 293.708C64.4313 307.695 78.3792 328.555 99.8093 318.077C121.24 307.599 53.8057 364.875 21.1766 317.657Z" fill="#FFD643"/>
<path d="M54.6442 301.632C49.4513 305.831 49.1764 314.262 57.3354 314.56C65.4943 314.858 71.9413 305.214 69.0821 305.616C66.2228 306.017 70.1908 302.353 76.0502 298.86C81.9113 295.386 77.318 295.173 76.7358 295.223C76.1535 295.273 86.3087 286.465 78.3692 288.729C70.3926 291.016 59.5821 297.651 54.6442 301.632Z" fill="#E2683C"/>
<path d="M25.4273 323.002C40.8383 339.943 61.8765 338.356 78.3106 332.549C67.2963 331.557 57.2118 325.441 47.6984 318.005C37.3699 309.955 28.4614 319.164 25.4273 323.002Z" fill="#E2683C"/>
<path d="M28.6701 302.43C33.0758 302.053 36.3413 298.175 35.9639 293.77C35.5864 289.364 31.709 286.098 27.3034 286.476C22.8978 286.853 19.6322 290.731 20.0097 295.136C20.3871 299.542 24.2645 302.807 28.6701 302.43Z" fill="white"/>
<path d="M27.2441 297.195C28.9163 297.052 30.1558 295.58 30.0125 293.908C29.8692 292.236 28.3975 290.996 26.7253 291.14C25.0531 291.283 23.8136 292.755 23.9569 294.427C24.1001 296.099 25.5719 297.338 27.2441 297.195Z" fill="#111111"/>
<path d="M25.0993 295.209C25.6031 295.166 25.9765 294.722 25.9334 294.218C25.8902 293.714 25.4468 293.341 24.943 293.384C24.4392 293.427 24.0657 293.871 24.1089 294.375C24.1521 294.878 24.5955 295.252 25.0993 295.209Z" fill="#FCFCFC"/>
<line x1="35.8716" y1="0.997292" x2="36.8716" y2="277.997" stroke="#FFD34E" stroke-width="1.5"/>
</svg>
