<svg width="123" height="149" viewBox="0 0 123 149" fill="none" xmlns="http://www.w3.org/2000/svg">
<path d="M24.5388 89.7889C25.373 89.7889 26.2072 89.8317 27.02 89.9172C28.0252 82.5809 34.3136 76.9128 41.928 76.9128C44.8797 76.9128 47.6388 77.7683 49.9702 79.2442C52.5583 74.5386 57.5633 71.3303 63.3383 71.3303C68.6 71.3303 73.22 73.9825 75.9791 78.025C78.3105 77.0839 80.8558 76.5492 83.5294 76.5492C94.3094 76.5492 103.079 85.0192 103.592 95.6708C114.394 98.2161 122.436 107.884 122.436 119.477C122.436 132.994 111.485 143.946 97.9669 143.946C91.1225 143.946 84.9411 141.122 80.4922 136.588C76.2572 143.881 68.3647 148.822 59.3172 148.822C49.6494 148.822 41.3077 143.197 37.3508 135.069C33.6077 137.379 29.223 138.727 24.5175 138.727C10.9997 138.727 0.048584 127.776 0.048584 114.258C0.0699692 100.761 11.0211 89.7889 24.5388 89.7889Z" fill="#FFD34E"/>
<path d="M27.5153 83.932L27.4495 84.4121L26.9676 84.3614C26.1728 84.2777 25.3561 84.2358 24.5388 84.2358C11.2977 84.2358 0.569534 94.9842 0.548584 108.205C0.549011 121.447 11.2761 132.174 24.5175 132.174C29.1259 132.174 33.4203 130.854 37.0882 128.591L37.5585 128.3L37.8004 128.797C41.677 136.76 49.8485 142.269 59.3172 142.269C68.1779 142.269 75.9099 137.431 80.0598 130.284L80.3894 129.716L80.8491 130.185C85.2085 134.628 91.2631 137.393 97.9669 137.393C111.209 137.393 121.936 126.665 121.936 113.424C121.936 102.069 114.059 92.5979 103.478 90.1044L103.111 90.018L103.093 89.6418C102.592 79.2547 94.0407 70.9961 83.5294 70.9961C80.9231 70.9961 78.4412 71.5173 76.1663 72.4356L75.7931 72.5862L75.5662 72.2538C72.8957 68.3413 68.427 65.7772 63.3383 65.7772C57.7536 65.7772 52.9124 68.8792 50.4083 73.4321L50.1521 73.898L49.7028 73.6136C47.4486 72.1866 44.7817 71.3597 41.928 71.3597C34.5678 71.3597 28.4873 76.839 27.5153 83.932Z" fill="white" stroke="#FFD34E"/>
<path d="M59.6593 0H61.2634V66.0411H59.6593V0Z" fill="#FFD34E"/>
</svg>
