<svg width="123" height="289" viewBox="0 0 123 289" fill="none" xmlns="http://www.w3.org/2000/svg">
<path d="M60.1832 0H61.7874V216.295H60.1832V0Z" fill="#FFD34E"/>
<path d="M16.7258 236.024C18.0305 226.976 25.7947 220.003 35.2272 220.003C37.1736 220.003 39.0558 220.303 40.8311 220.859C41.7936 213.394 48.1461 207.619 55.8675 207.619C57.8994 207.619 59.8244 208.026 61.5783 208.753C66.1769 201.716 74.1122 197.053 83.1383 197.053C97.255 197.053 108.719 208.432 108.869 222.506C116.954 226.848 122.43 235.382 122.43 245.178C122.43 255.06 116.869 263.615 108.698 267.936C108.206 277.818 100.057 285.689 90.0469 285.689C84.9777 285.689 80.3791 283.657 77.0211 280.384C74.4972 285.282 69.4066 288.662 63.5247 288.662C57.8566 288.662 52.8944 285.539 50.3064 280.919C47.59 282.459 44.4672 283.336 41.1305 283.336C33.623 283.336 27.1422 278.887 24.1691 272.492C22.4366 273.026 20.6186 273.304 18.715 273.304C8.38412 273.304 -0.000320435 264.92 -0.000320435 254.589C-0.000320435 244.964 7.31467 237.029 16.7258 236.024Z" fill="#FFD34E"/>
<path d="M17.2207 230.042L17.1652 230.426L16.7789 230.468C7.61783 231.446 0.49968 239.171 0.49968 248.536C0.49968 258.591 8.66027 266.751 18.715 266.751C20.5691 266.751 22.3374 266.481 24.0217 265.961L24.4386 265.832L24.6225 266.228C27.517 272.454 33.8256 276.783 41.1305 276.783C44.3781 276.783 47.4163 275.93 50.0598 274.431L50.4969 274.183L50.7426 274.621C53.2455 279.089 58.0442 282.109 63.5247 282.109C69.2097 282.109 74.1339 278.843 76.5766 274.102L76.8861 273.501L77.37 273.973C80.639 277.159 85.114 279.136 90.0469 279.136C99.7882 279.136 107.72 271.476 108.199 261.858L108.213 261.574L108.464 261.441C116.478 257.203 121.93 248.814 121.93 239.125C121.93 229.52 116.561 221.151 108.633 216.893L108.372 216.753L108.369 216.458C108.222 202.658 96.9805 191.5 83.1383 191.5C74.2889 191.5 66.5075 196.071 61.9969 202.973L61.77 203.32L61.3868 203.162C59.692 202.459 57.832 202.066 55.8675 202.066C48.4023 202.066 42.2579 207.65 41.327 214.87L41.2507 215.461L40.6816 215.283C38.9539 214.742 37.122 214.45 35.2272 214.45C26.0479 214.45 18.4906 221.236 17.2207 230.042Z" fill="white" stroke="#FFD34E"/>
</svg>
