<svg width="104" height="146" viewBox="0 0 104 146" fill="none" xmlns="http://www.w3.org/2000/svg">
<path d="M102.859 116.589C104.484 127.198 97.1905 137.101 86.5816 138.705C82.7316 139.283 78.9886 138.705 75.6947 137.208C73.898 138.812 71.6308 139.946 69.0855 140.331C66.583 140.716 64.1447 140.331 61.9844 139.39C60.0808 142.577 56.8297 144.929 52.8514 145.528C47.6111 146.32 42.6274 143.839 39.9752 139.604C38.0074 140.908 35.7188 141.849 33.2377 142.213C24.9816 143.475 17.2174 138.491 14.7363 130.791C7.78494 128.61 2.33076 122.642 1.15437 114.964C-0.492577 104.184 6.908 94.1309 17.688 92.4839C18.2655 92.3984 18.843 92.3556 19.3991 92.3128C18.7147 83.907 24.6394 76.2925 33.088 75.0092C38.1144 74.2392 42.9697 75.8862 46.456 79.0731C48.7233 75.6295 52.3594 73.127 56.7441 72.4425C64.9574 71.1806 72.6361 76.8486 73.898 85.062C73.9408 85.3186 73.9408 85.5539 73.9836 85.8106C74.1761 85.7678 74.3472 85.725 74.5397 85.7036C82.4322 84.5059 89.79 89.9173 90.9878 97.7884C91.1803 99.0717 91.1803 100.312 91.0519 101.531C97.105 104.077 101.789 109.595 102.859 116.589Z" fill="#FFD34E"/>
<path d="M102.364 110.612L102.364 110.612C101.323 103.799 96.7603 98.4211 90.8581 95.9392L90.5158 95.7953L90.5547 95.426C90.6792 94.2428 90.6786 93.0454 90.4934 91.81C89.337 84.2128 82.2349 78.9884 74.6147 80.1449L74.6048 80.1464L74.5949 80.1475C74.4623 80.1622 74.3454 80.1886 74.188 80.224C74.1577 80.2309 74.1258 80.2381 74.092 80.2456L73.5771 80.36L73.4904 79.8397C73.4657 79.6919 73.4536 79.5524 73.4433 79.4334L73.4427 79.4265C73.4318 79.301 73.4225 79.1971 73.4048 79.0911L73.4048 79.0911L73.4038 79.0848C72.1836 71.1429 64.7591 65.6641 56.8206 66.8835C52.5818 67.5454 49.0668 69.9638 46.8737 73.2949L46.5513 73.7845L46.1187 73.389C42.7388 70.2994 38.0337 68.7043 33.1637 69.4503L33.1631 69.4504C24.9764 70.694 19.2341 78.0728 19.8975 86.2191L19.9382 86.7197L19.4374 86.7582L19.3814 86.7626C18.8403 86.8041 18.3003 86.8456 17.7624 86.9253C7.25558 88.5311 0.0436172 98.3287 1.6486 108.835C2.79509 116.318 8.11018 122.135 14.8861 124.261L15.1329 124.339L15.2122 124.585C17.6193 132.055 25.1526 136.89 33.1622 135.666L33.1652 135.665C35.5674 135.313 37.7871 134.401 39.6989 133.134L40.1266 132.85L40.399 133.285C42.9494 137.358 47.7405 139.741 52.7767 138.981L52.7769 138.981C56.6 138.405 59.7244 136.145 61.5552 133.08L61.7808 132.703L62.1841 132.878C64.2635 133.784 66.6066 134.153 69.0095 133.784L69.0108 133.783C71.4548 133.414 73.6335 132.325 75.3617 130.782L75.6049 130.565L75.9016 130.7C79.1088 132.158 82.7544 132.721 86.5075 132.158C96.8429 130.595 103.948 120.947 102.364 110.612Z" fill="white" stroke="#FFD34E"/>
<path d="M47 0H49V72H47V0Z" fill="#FFD34E"/>
</svg>
