<svg width="139" height="285" viewBox="0 0 139 285" fill="none" xmlns="http://www.w3.org/2000/svg">
<path d="M23.9589 220.218C24.8573 220.176 25.7342 220.176 26.6111 220.218C26.9961 207.62 36.9633 197.204 49.7753 196.477C59.443 195.942 68.1055 201.054 72.5758 208.946C76.7039 204.797 82.3292 202.081 88.6389 201.717C99.7397 201.097 109.536 207.941 113.129 217.887C113.749 217.78 114.37 217.673 114.99 217.652C122.797 217.202 129.47 223.17 129.898 230.977C130.005 232.902 129.727 234.741 129.128 236.452C134.539 239.083 138.411 244.473 138.774 250.911C139.309 260.365 132.08 268.472 122.604 269.006C120.851 269.113 119.118 268.942 117.492 268.536C114.07 277.134 105.9 283.422 96.0394 283.979C87.2272 284.471 79.2491 280.278 74.5222 273.541C70.3086 278.653 64.063 282.054 56.9405 282.46C46.5028 283.059 37.2414 277.027 33.1775 268.065C31.1242 268.75 28.9639 269.177 26.7181 269.306C13.1789 270.076 1.56474 259.702 0.794739 246.142C0.0247498 232.603 10.3984 220.988 23.9589 220.218Z" fill="#FFD34E"/>
<path d="M27.1109 214.181L27.0954 214.689L26.5868 214.665C25.727 214.623 24.8669 214.623 23.985 214.665C10.7008 215.42 0.539703 226.798 1.29393 240.06C2.04831 253.346 13.4267 263.508 26.6895 262.754C28.8901 262.628 31.0069 262.209 33.0194 261.538L33.4468 261.395L33.6329 261.806C37.6148 270.587 46.6885 276.494 56.9119 275.908L56.9121 275.908C63.8897 275.51 70.0077 272.179 74.1364 267.17L74.5542 266.663L74.9315 267.201C79.563 273.802 87.3784 277.908 96.0112 277.426C105.67 276.882 113.675 270.722 117.028 262.298L117.19 261.892L117.614 261.998C119.191 262.392 120.872 262.558 122.574 262.454L122.576 262.454C131.776 261.935 138.794 254.065 138.275 244.887L138.275 244.886C137.922 238.637 134.165 233.404 128.909 230.849L128.509 230.654L128.656 230.234C129.234 228.584 129.502 226.81 129.399 224.952L129.399 224.951C128.986 217.42 122.549 211.664 115.019 212.098L115.019 212.098L115.007 212.098C114.427 212.118 113.84 212.219 113.214 212.327L112.801 212.398L112.659 212.004C109.139 202.26 99.5415 195.556 88.6672 196.163C82.4856 196.519 76.9751 199.18 72.9303 203.246L72.4655 203.713L72.1407 203.14C67.7605 195.406 59.2738 190.399 49.8033 190.923C37.2523 191.635 27.488 201.84 27.1109 214.181Z" fill="white" stroke="#FFD34E"/>
<path d="M75.9998 0H77.6039V200.157H75.9998V0Z" fill="#FFD34E"/>
</svg>
