<svg width="1920" height="593" viewBox="0 0 1920 593" fill="none" xmlns="http://www.w3.org/2000/svg">
<g opacity="0.3">
<path d="M17.6467 567.47L4.96838 580.148L17.6467 592.827L30.3249 580.148L17.6467 567.47Z" fill="#FFD34E"/>
<path d="M88.6951 567.468L76.0168 580.146L88.6951 592.824L101.373 580.146L88.6951 567.468Z" fill="#FFD34E"/>
<path d="M159.744 567.466L147.065 580.144L159.744 592.822L172.422 580.144L159.744 567.466Z" fill="#FFD34E"/>
<path d="M230.785 567.471L218.107 580.149L230.785 592.827L243.463 580.149L230.785 567.471Z" fill="#FFD34E"/>
<path d="M301.833 567.469L289.155 580.147L301.833 592.825L314.512 580.147L301.833 567.469Z" fill="#FFD34E"/>
<path d="M372.882 567.466L360.203 580.145L372.882 592.823L385.56 580.145L372.882 567.466Z" fill="#FFD34E"/>
<path d="M443.923 567.471L431.245 580.15L443.923 592.828L456.602 580.15L443.923 567.471Z" fill="#FFD34E"/>
<path d="M514.972 567.469L502.293 580.148L514.972 592.826L527.65 580.148L514.972 567.469Z" fill="#FFD34E"/>
<path d="M586.013 567.474L573.335 580.152L586.013 592.831L598.691 580.152L586.013 567.474Z" fill="#FFD34E"/>
<path d="M657.061 567.472L644.383 580.15L657.061 592.829L669.74 580.15L657.061 567.472Z" fill="#FFD34E"/>
<path d="M728.11 567.47L715.432 580.148L728.11 592.827L740.788 580.148L728.11 567.47Z" fill="#FFD34E"/>
<path d="M799.151 567.475L786.473 580.153L799.151 592.832L811.83 580.153L799.151 567.475Z" fill="#FFD34E"/>
<path d="M870.2 567.473L857.521 580.151L870.2 592.829L882.878 580.151L870.2 567.473Z" fill="#FFD34E"/>
<path d="M941.248 567.471L928.57 580.149L941.248 592.827L953.926 580.149L941.248 567.471Z" fill="#FFD34E"/>
<path d="M1012.29 567.476L999.611 580.154L1012.29 592.832L1024.97 580.154L1012.29 567.476Z" fill="#FFD34E"/>
<path d="M1083.34 567.474L1070.66 580.152L1083.34 592.83L1096.02 580.152L1083.34 567.474Z" fill="#FFD34E"/>
<path d="M1154.38 567.479L1141.7 580.157L1154.38 592.835L1167.06 580.157L1154.38 567.479Z" fill="#FFD34E"/>
<path d="M1225.43 567.476L1212.75 580.155L1225.43 592.833L1238.11 580.155L1225.43 567.476Z" fill="#FFD34E"/>
<path d="M1296.48 567.474L1283.8 580.153L1296.48 592.831L1309.15 580.153L1296.48 567.474Z" fill="#FFD34E"/>
<path d="M1367.52 567.479L1354.84 580.158L1367.52 592.836L1380.2 580.158L1367.52 567.479Z" fill="#FFD34E"/>
<path d="M1438.57 567.477L1425.89 580.156L1438.57 592.834L1451.24 580.155L1438.57 567.477Z" fill="#FFD34E"/>
<path d="M1509.61 567.475L1496.94 580.153L1509.61 592.832L1522.29 580.153L1509.61 567.475Z" fill="#FFD34E"/>
<path d="M1580.66 567.48L1567.98 580.158L1580.66 592.837L1593.33 580.158L1580.66 567.48Z" fill="#FFD34E"/>
<path d="M1651.7 567.478L1639.03 580.156L1651.7 592.835L1664.38 580.156L1651.7 567.478Z" fill="#FFD34E"/>
<path d="M1722.75 567.476L1710.07 580.154L1722.75 592.832L1735.43 580.154L1722.75 567.476Z" fill="#FFD34E"/>
<path d="M1793.79 567.481L1781.12 580.159L1793.79 592.837L1806.47 580.159L1793.79 567.481Z" fill="#FFD34E"/>
<path d="M1864.84 567.479L1852.16 580.157L1864.84 592.835L1877.52 580.157L1864.84 567.479Z" fill="#FFD34E"/>
<path d="M17.6574 500.899L6.25897 512.297L17.6574 523.696L29.0558 512.297L17.6574 500.899Z" fill="#FFD34E"/>
<path d="M88.7058 500.897L77.3074 512.295L88.7058 523.694L100.104 512.295L88.7058 500.897Z" fill="#FFD34E"/>
<path d="M159.747 500.902L148.349 512.3L159.747 523.699L171.146 512.3L159.747 500.902Z" fill="#FFD34E"/>
<path d="M230.796 500.9L219.397 512.298L230.796 523.697L242.194 512.298L230.796 500.9Z" fill="#FFD34E"/>
<path d="M301.837 500.905L290.438 512.303L301.837 523.702L313.235 512.303L301.837 500.905Z" fill="#FFD34E"/>
<path d="M372.885 500.902L361.487 512.301L372.885 523.699L384.284 512.301L372.885 500.902Z" fill="#FFD34E"/>
<path d="M443.934 500.9L432.535 512.299L443.934 523.697L455.332 512.299L443.934 500.9Z" fill="#FFD34E"/>
<path d="M514.975 500.905L503.577 512.304L514.975 523.702L526.374 512.304L514.975 500.905Z" fill="#FFD34E"/>
<path d="M586.024 500.903L574.625 512.302L586.024 523.7L597.422 512.302L586.024 500.903Z" fill="#FFD34E"/>
<path d="M657.072 500.901L645.674 512.3L657.072 523.698L668.471 512.3L657.072 500.901Z" fill="#FFD34E"/>
<path d="M728.114 500.906L716.715 512.305L728.114 523.703L739.512 512.305L728.114 500.906Z" fill="#FFD34E"/>
<path d="M799.162 500.904L787.763 512.302L799.162 523.701L810.56 512.302L799.162 500.904Z" fill="#FFD34E"/>
<path d="M870.21 500.902L858.812 512.3L870.21 523.699L881.609 512.3L870.21 500.902Z" fill="#FFD34E"/>
<path d="M941.252 500.907L929.853 512.305L941.252 523.704L952.65 512.305L941.252 500.907Z" fill="#FFD34E"/>
<path d="M1012.3 500.905L1000.9 512.303L1012.3 523.702L1023.7 512.303L1012.3 500.905Z" fill="#FFD34E"/>
<path d="M1083.34 500.91L1071.94 512.308L1083.34 523.707L1094.74 512.308L1083.34 500.91Z" fill="#FFD34E"/>
<path d="M1154.39 500.908L1142.99 512.306L1154.39 523.705L1165.79 512.306L1154.39 500.908Z" fill="#FFD34E"/>
<path d="M1225.44 500.905L1214.04 512.304L1225.44 523.702L1236.84 512.304L1225.44 500.905Z" fill="#FFD34E"/>
<path d="M1296.48 500.91L1285.08 512.309L1296.48 523.707L1307.88 512.309L1296.48 500.91Z" fill="#FFD34E"/>
<path d="M1367.53 500.908L1356.13 512.307L1367.53 523.705L1378.93 512.307L1367.53 500.908Z" fill="#FFD34E"/>
<path d="M1438.58 500.906L1427.18 512.305L1438.58 523.703L1449.98 512.305L1438.58 500.906Z" fill="#FFD34E"/>
<path d="M1509.62 500.911L1498.22 512.31L1509.62 523.708L1521.02 512.31L1509.62 500.911Z" fill="#FFD34E"/>
<path d="M1580.67 500.909L1569.27 512.308L1580.67 523.706L1592.06 512.308L1580.67 500.909Z" fill="#FFD34E"/>
<path d="M1651.71 500.914L1640.31 512.312L1651.71 523.711L1663.11 512.312L1651.71 500.914Z" fill="#FFD34E"/>
<path d="M1722.76 500.912L1711.36 512.31L1722.76 523.709L1734.15 512.31L1722.76 500.912Z" fill="#FFD34E"/>
<path d="M1793.8 500.91L1782.41 512.308L1793.8 523.707L1805.2 512.308L1793.8 500.91Z" fill="#FFD34E"/>
<path d="M1864.85 500.915L1853.45 512.313L1864.85 523.712L1876.24 512.313L1864.85 500.915Z" fill="#FFD34E"/>
<path d="M17.6539 434.328L7.53534 444.447L17.6539 454.565L27.7726 444.447L17.6539 434.328Z" fill="#FFD34E"/>
<path d="M88.7024 434.326L78.5838 444.444L88.7024 454.563L98.821 444.444L88.7024 434.326Z" fill="#FFD34E"/>
<path d="M159.751 434.324L149.632 444.442L159.751 454.561L169.869 444.442L159.751 434.324Z" fill="#FFD34E"/>
<path d="M230.792 434.329L220.674 444.447L230.792 454.566L240.911 444.447L230.792 434.329Z" fill="#FFD34E"/>
<path d="M301.841 434.327L291.722 444.445L301.841 454.564L311.959 444.445L301.841 434.327Z" fill="#FFD34E"/>
<path d="M372.889 434.324L362.771 444.443L372.889 454.562L383.008 444.443L372.889 434.324Z" fill="#FFD34E"/>
<path d="M443.93 434.329L433.812 444.448L443.93 454.567L454.049 444.448L443.93 434.329Z" fill="#FFD34E"/>
<path d="M514.979 434.327L504.86 444.446L514.979 454.564L525.098 444.446L514.979 434.327Z" fill="#FFD34E"/>
<path d="M586.027 434.325L575.909 444.444L586.027 454.562L596.146 444.444L586.027 434.325Z" fill="#FFD34E"/>
<path d="M657.069 434.33L646.95 444.449L657.069 454.567L667.187 444.449L657.069 434.33Z" fill="#FFD34E"/>
<path d="M728.117 434.328L717.999 444.447L728.117 454.565L738.236 444.447L728.117 434.328Z" fill="#FFD34E"/>
<path d="M799.159 434.333L789.04 444.452L799.159 454.57L809.277 444.452L799.159 434.333Z" fill="#FFD34E"/>
<path d="M870.207 434.331L860.088 444.449L870.207 454.568L880.326 444.449L870.207 434.331Z" fill="#FFD34E"/>
<path d="M941.256 434.329L931.137 444.447L941.256 454.566L951.374 444.447L941.256 434.329Z" fill="#FFD34E"/>
<path d="M1012.3 434.334L1002.18 444.452L1012.3 454.571L1022.42 444.452L1012.3 434.334Z" fill="#FFD34E"/>
<path d="M1083.35 434.332L1073.23 444.45L1083.35 454.569L1093.46 444.45L1083.35 434.332Z" fill="#FFD34E"/>
<path d="M1154.39 434.33L1144.28 444.448L1154.39 454.567L1164.51 444.448L1154.39 434.33Z" fill="#FFD34E"/>
<path d="M1225.43 434.334L1215.32 444.453L1225.44 454.572L1235.55 444.453L1225.43 434.334Z" fill="#FFD34E"/>
<path d="M1296.48 434.332L1286.36 444.451L1296.48 454.57L1306.6 444.451L1296.48 434.332Z" fill="#FFD34E"/>
<path d="M1367.53 434.33L1357.41 444.449L1367.53 454.567L1377.65 444.449L1367.53 434.33Z" fill="#FFD34E"/>
<path d="M1438.57 434.335L1428.45 444.454L1438.57 454.572L1448.69 444.454L1438.57 434.335Z" fill="#FFD34E"/>
<path d="M1509.62 434.333L1499.5 444.452L1509.62 454.57L1519.74 444.452L1509.62 434.333Z" fill="#FFD34E"/>
<path d="M1580.66 434.338L1570.54 444.457L1580.66 454.575L1590.78 444.457L1580.66 434.338Z" fill="#FFD34E"/>
<path d="M1651.71 434.336L1641.59 444.454L1651.71 454.573L1661.83 444.454L1651.71 434.336Z" fill="#FFD34E"/>
<path d="M1722.76 434.334L1712.64 444.452L1722.76 454.571L1732.88 444.452L1722.76 434.334Z" fill="#FFD34E"/>
<path d="M1793.8 434.339L1783.68 444.457L1793.8 454.576L1803.92 444.457L1793.8 434.339Z" fill="#FFD34E"/>
<path d="M1864.85 434.337L1854.73 444.455L1864.85 454.574L1874.97 444.455L1864.85 434.337Z" fill="#FFD34E"/>
<path d="M17.6576 367.75L8.81885 376.589L17.6576 385.427L26.4963 376.589L17.6576 367.75Z" fill="#FFD34E"/>
<path d="M88.706 367.748L79.8673 376.587L88.706 385.425L97.5448 376.587L88.706 367.748Z" fill="#FFD34E"/>
<path d="M159.747 367.753L150.909 376.591L159.747 385.43L168.586 376.591L159.747 367.753Z" fill="#FFD34E"/>
<path d="M230.796 367.751L221.957 376.589L230.796 385.428L239.635 376.589L230.796 367.751Z" fill="#FFD34E"/>
<path d="M301.844 367.749L293.005 376.587L301.844 385.426L310.683 376.587L301.844 367.749Z" fill="#FFD34E"/>
<path d="M372.886 367.753L364.047 376.592L372.886 385.431L381.724 376.592L372.886 367.753Z" fill="#FFD34E"/>
<path d="M443.934 367.751L435.095 376.59L443.934 385.429L452.773 376.59L443.934 367.751Z" fill="#FFD34E"/>
<path d="M514.975 367.756L506.137 376.595L514.975 385.434L523.814 376.595L514.975 367.756Z" fill="#FFD34E"/>
<path d="M586.024 367.754L577.185 376.593L586.024 385.432L594.863 376.593L586.024 367.754Z" fill="#FFD34E"/>
<path d="M657.072 367.752L648.234 376.591L657.072 385.43L665.911 376.591L657.072 367.752Z" fill="#FFD34E"/>
<path d="M728.114 367.757L719.275 376.596L728.114 385.435L736.952 376.596L728.114 367.757Z" fill="#FFD34E"/>
<path d="M799.162 367.755L790.323 376.594L799.162 385.432L808.001 376.594L799.162 367.755Z" fill="#FFD34E"/>
<path d="M870.211 367.753L861.372 376.592L870.211 385.43L879.049 376.592L870.211 367.753Z" fill="#FFD34E"/>
<path d="M941.252 367.758L932.413 376.596L941.252 385.435L950.091 376.596L941.252 367.758Z" fill="#FFD34E"/>
<path d="M1012.3 367.756L1003.46 376.594L1012.3 385.433L1021.14 376.594L1012.3 367.756Z" fill="#FFD34E"/>
<path d="M1083.35 367.754L1074.51 376.592L1083.35 385.431L1092.19 376.592L1083.35 367.754Z" fill="#FFD34E"/>
<path d="M1154.39 367.758L1145.55 376.597L1154.39 385.436L1163.23 376.597L1154.39 367.758Z" fill="#FFD34E"/>
<path d="M1225.44 367.756L1216.6 376.595L1225.44 385.434L1234.28 376.595L1225.44 367.756Z" fill="#FFD34E"/>
<path d="M1296.48 367.761L1287.64 376.6L1296.48 385.439L1305.32 376.6L1296.48 367.761Z" fill="#FFD34E"/>
<path d="M1367.53 367.759L1358.69 376.598L1367.53 385.437L1376.37 376.598L1367.53 367.759Z" fill="#FFD34E"/>
<path d="M1438.58 367.757L1429.74 376.596L1438.58 385.435L1447.42 376.596L1438.58 367.757Z" fill="#FFD34E"/>
<path d="M1509.62 367.762L1500.78 376.601L1509.62 385.44L1518.46 376.601L1509.62 367.762Z" fill="#FFD34E"/>
<path d="M1580.67 367.76L1571.83 376.599L1580.67 385.437L1589.51 376.599L1580.67 367.76Z" fill="#FFD34E"/>
<path d="M1651.72 367.758L1642.88 376.597L1651.72 385.435L1660.55 376.597L1651.72 367.758Z" fill="#FFD34E"/>
<path d="M1722.76 367.763L1713.92 376.601L1722.76 385.44L1731.6 376.601L1722.76 367.763Z" fill="#FFD34E"/>
<path d="M1793.81 367.761L1784.97 376.599L1793.81 385.438L1802.64 376.599L1793.81 367.761Z" fill="#FFD34E"/>
<path d="M1864.85 367.766L1856.01 376.604L1864.85 385.443L1873.69 376.604L1864.85 367.766Z" fill="#FFD34E"/>
<path d="M17.6611 301.172L10.1022 308.731L17.6611 316.29L25.22 308.731L17.6611 301.172Z" fill="#FFD34E"/>
<path d="M88.7025 301.177L81.1436 308.736L88.7025 316.295L96.2614 308.736L88.7025 301.177Z" fill="#FFD34E"/>
<path d="M159.751 301.175L152.192 308.734L159.751 316.292L167.31 308.733L159.751 301.175Z" fill="#FFD34E"/>
<path d="M230.792 301.18L223.234 308.738L230.792 316.297L238.351 308.738L230.792 301.18Z" fill="#FFD34E"/>
<path d="M301.841 301.177L294.282 308.736L301.841 316.295L309.4 308.736L301.841 301.177Z" fill="#FFD34E"/>
<path d="M372.889 301.175L365.33 308.734L372.889 316.293L380.448 308.734L372.889 301.175Z" fill="#FFD34E"/>
<path d="M443.931 301.18L436.372 308.739L443.931 316.298L451.489 308.739L443.931 301.18Z" fill="#FFD34E"/>
<path d="M514.979 301.178L507.42 308.737L514.979 316.296L522.538 308.737L514.979 301.178Z" fill="#FFD34E"/>
<path d="M586.027 301.176L578.469 308.735L586.027 316.294L593.586 308.735L586.027 301.176Z" fill="#FFD34E"/>
<path d="M657.069 301.181L649.51 308.74L657.069 316.299L664.628 308.74L657.069 301.181Z" fill="#FFD34E"/>
<path d="M728.117 301.179L720.558 308.738L728.117 316.297L735.676 308.738L728.117 301.179Z" fill="#FFD34E"/>
<path d="M799.166 301.177L791.607 308.736L799.166 316.295L806.725 308.736L799.166 301.177Z" fill="#FFD34E"/>
<path d="M870.207 301.182L862.648 308.741L870.207 316.3L877.766 308.741L870.207 301.182Z" fill="#FFD34E"/>
<path d="M941.256 301.18L933.697 308.738L941.256 316.297L948.815 308.738L941.256 301.18Z" fill="#FFD34E"/>
<path d="M1012.3 301.185L1004.74 308.744L1012.3 316.302L1019.86 308.743L1012.3 301.185Z" fill="#FFD34E"/>
<path d="M1083.35 301.183L1075.79 308.741L1083.35 316.3L1090.9 308.741L1083.35 301.183Z" fill="#FFD34E"/>
<path d="M1154.39 301.18L1146.83 308.739L1154.39 316.298L1161.95 308.739L1154.39 301.18Z" fill="#FFD34E"/>
<path d="M1225.44 301.185L1217.88 308.744L1225.44 316.303L1232.99 308.744L1225.44 301.185Z" fill="#FFD34E"/>
<path d="M1296.48 301.183L1288.92 308.742L1296.48 316.301L1304.04 308.742L1296.48 301.183Z" fill="#FFD34E"/>
<path d="M1367.53 301.181L1359.97 308.74L1367.53 316.299L1375.09 308.74L1367.53 301.181Z" fill="#FFD34E"/>
<path d="M1438.57 301.186L1431.01 308.745L1438.57 316.304L1446.13 308.745L1438.57 301.186Z" fill="#FFD34E"/>
<path d="M1509.62 301.184L1502.06 308.743L1509.62 316.302L1517.18 308.743L1509.62 301.184Z" fill="#FFD34E"/>
<path d="M1580.67 301.182L1573.11 308.741L1580.67 316.299L1588.23 308.741L1580.67 301.182Z" fill="#FFD34E"/>
<path d="M1651.71 301.187L1644.15 308.746L1651.71 316.305L1659.27 308.746L1651.71 301.187Z" fill="#FFD34E"/>
<path d="M1722.76 301.185L1715.2 308.744L1722.76 316.302L1730.32 308.744L1722.76 301.185Z" fill="#FFD34E"/>
<path d="M1793.8 301.19L1786.24 308.749L1793.8 316.307L1801.36 308.748L1793.8 301.19Z" fill="#FFD34E"/>
<path d="M1864.85 301.188L1857.29 308.746L1864.85 316.305L1872.41 308.746L1864.85 301.188Z" fill="#FFD34E"/>
<path d="M17.6577 234.601L11.3787 240.88L17.6577 247.159L23.9368 240.88L17.6577 234.601Z" fill="#FFD34E"/>
<path d="M88.7062 234.599L82.4271 240.878L88.7062 247.157L94.9852 240.878L88.7062 234.599Z" fill="#FFD34E"/>
<path d="M159.748 234.604L153.469 240.883L159.748 247.162L166.027 240.883L159.748 234.604Z" fill="#FFD34E"/>
<path d="M230.796 234.602L224.517 240.881L230.796 247.16L237.075 240.881L230.796 234.602Z" fill="#FFD34E"/>
<path d="M301.844 234.599L295.565 240.878L301.844 247.157L308.123 240.878L301.844 234.599Z" fill="#FFD34E"/>
<path d="M372.886 234.604L366.607 240.883L372.886 247.162L379.165 240.883L372.886 234.604Z" fill="#FFD34E"/>
<path d="M443.934 234.602L437.655 240.881L443.934 247.16L450.213 240.881L443.934 234.602Z" fill="#FFD34E"/>
<path d="M514.983 234.6L508.704 240.879L514.983 247.158L521.262 240.879L514.983 234.6Z" fill="#FFD34E"/>
<path d="M586.024 234.605L579.745 240.884L586.024 247.163L592.303 240.884L586.024 234.605Z" fill="#FFD34E"/>
<path d="M657.073 234.603L650.793 240.882L657.073 247.161L663.352 240.882L657.073 234.603Z" fill="#FFD34E"/>
<path d="M728.114 234.608L721.835 240.887L728.114 247.166L734.393 240.887L728.114 234.608Z" fill="#FFD34E"/>
<path d="M799.162 234.606L792.883 240.885L799.162 247.164L805.441 240.885L799.162 234.606Z" fill="#FFD34E"/>
<path d="M870.211 234.604L863.932 240.883L870.211 247.162L876.49 240.883L870.211 234.604Z" fill="#FFD34E"/>
<path d="M941.252 234.609L934.973 240.888L941.252 247.167L947.531 240.888L941.252 234.609Z" fill="#FFD34E"/>
<path d="M1012.3 234.607L1006.02 240.886L1012.3 247.165L1018.58 240.886L1012.3 234.607Z" fill="#FFD34E"/>
<path d="M1083.35 234.604L1077.07 240.883L1083.35 247.162L1089.63 240.883L1083.35 234.604Z" fill="#FFD34E"/>
<path d="M1154.39 234.609L1148.11 240.888L1154.39 247.167L1160.67 240.888L1154.39 234.609Z" fill="#FFD34E"/>
<path d="M1225.44 234.607L1219.16 240.886L1225.44 247.165L1231.72 240.886L1225.44 234.607Z" fill="#FFD34E"/>
<path d="M1296.49 234.605L1290.21 240.884L1296.49 247.163L1302.77 240.884L1296.49 234.605Z" fill="#FFD34E"/>
<path d="M1367.53 234.61L1361.25 240.889L1367.53 247.168L1373.81 240.889L1367.53 234.61Z" fill="#FFD34E"/>
<path d="M1438.58 234.608L1432.3 240.887L1438.58 247.166L1444.86 240.887L1438.58 234.608Z" fill="#FFD34E"/>
<path d="M1509.62 234.613L1503.34 240.892L1509.62 247.171L1515.9 240.892L1509.62 234.613Z" fill="#FFD34E"/>
<path d="M1580.67 234.611L1574.39 240.89L1580.67 247.169L1586.95 240.89L1580.67 234.611Z" fill="#FFD34E"/>
<path d="M1651.72 234.609L1645.44 240.888L1651.72 247.167L1657.99 240.888L1651.72 234.609Z" fill="#FFD34E"/>
<path d="M1722.76 234.614L1716.48 240.893L1722.76 247.172L1729.04 240.893L1722.76 234.614Z" fill="#FFD34E"/>
<path d="M1793.81 234.612L1787.53 240.891L1793.81 247.17L1800.08 240.891L1793.81 234.612Z" fill="#FFD34E"/>
<path d="M1864.85 234.609L1858.57 240.889L1864.85 247.168L1871.13 240.889L1864.85 234.609Z" fill="#FFD34E"/>
<path d="M17.6613 168.023L12.6621 173.022L17.6613 178.021L22.6605 173.022L17.6613 168.023Z" fill="#FFD34E"/>
<path d="M88.7027 168.028L83.7035 173.027L88.7027 178.026L93.7019 173.027L88.7027 168.028Z" fill="#FFD34E"/>
<path d="M159.751 168.026L154.752 173.025L159.751 178.024L164.75 173.025L159.751 168.026Z" fill="#FFD34E"/>
<path d="M230.8 168.023L225.8 173.023L230.8 178.022L235.799 173.023L230.8 168.023Z" fill="#FFD34E"/>
<path d="M301.841 168.028L296.842 173.028L301.841 178.027L306.84 173.028L301.841 168.028Z" fill="#FFD34E"/>
<path d="M372.889 168.026L367.89 173.026L372.889 178.025L377.889 173.026L372.889 168.026Z" fill="#FFD34E"/>
<path d="M443.938 168.024L438.939 173.023L443.938 178.023L448.937 173.023L443.938 168.024Z" fill="#FFD34E"/>
<path d="M514.979 168.029L509.98 173.028L514.979 178.028L519.979 173.028L514.979 168.029Z" fill="#FFD34E"/>
<path d="M586.028 168.027L581.028 173.026L586.028 178.025L591.027 173.026L586.028 168.027Z" fill="#FFD34E"/>
<path d="M657.069 168.032L652.07 173.031L657.069 178.03L662.068 173.031L657.069 168.032Z" fill="#FFD34E"/>
<path d="M728.117 168.03L723.118 173.029L728.117 178.028L733.117 173.029L728.117 168.03Z" fill="#FFD34E"/>
<path d="M799.166 168.028L794.167 173.027L799.166 178.026L804.165 173.027L799.166 168.028Z" fill="#FFD34E"/>
<path d="M870.207 168.033L865.208 173.032L870.207 178.031L875.206 173.032L870.207 168.033Z" fill="#FFD34E"/>
<path d="M941.256 168.031L936.257 173.03L941.256 178.029L946.255 173.03L941.256 168.031Z" fill="#FFD34E"/>
<path d="M1012.3 168.028L1007.31 173.028L1012.3 178.027L1017.3 173.028L1012.3 168.028Z" fill="#FFD34E"/>
<path d="M1083.35 168.033L1078.35 173.033L1083.35 178.032L1088.34 173.033L1083.35 168.033Z" fill="#FFD34E"/>
<path d="M1154.39 168.031L1149.39 173.03L1154.39 178.03L1159.39 173.031L1154.39 168.031Z" fill="#FFD34E"/>
<path d="M1225.44 168.036L1220.44 173.035L1225.44 178.035L1230.43 173.035L1225.44 168.036Z" fill="#FFD34E"/>
<path d="M1296.48 168.034L1291.48 173.033L1296.48 178.033L1301.48 173.033L1296.48 168.034Z" fill="#FFD34E"/>
<path d="M1367.53 168.032L1362.53 173.031L1367.53 178.03L1372.53 173.031L1367.53 168.032Z" fill="#FFD34E"/>
<path d="M1438.57 168.037L1433.57 173.036L1438.57 178.035L1443.57 173.036L1438.57 168.037Z" fill="#FFD34E"/>
<path d="M1509.62 168.035L1504.62 173.034L1509.62 178.033L1514.62 173.034L1509.62 168.035Z" fill="#FFD34E"/>
<path d="M1580.67 168.033L1575.67 173.032L1580.67 178.031L1585.67 173.032L1580.67 168.033Z" fill="#FFD34E"/>
<path d="M1651.71 168.038L1646.71 173.037L1651.71 178.036L1656.71 173.037L1651.71 168.038Z" fill="#FFD34E"/>
<path d="M1722.76 168.036L1717.76 173.035L1722.76 178.034L1727.76 173.035L1722.76 168.036Z" fill="#FFD34E"/>
<path d="M1793.81 168.034L1788.81 173.033L1793.81 178.032L1798.81 173.033L1793.81 168.034Z" fill="#FFD34E"/>
<path d="M1864.85 168.038L1859.85 173.038L1864.85 178.037L1869.85 173.038L1864.85 168.038Z" fill="#FFD34E"/>
<path d="M17.6579 101.452L13.9385 105.171L17.6579 108.89L21.3772 105.171L17.6579 101.452Z" fill="#FFD34E"/>
<path d="M88.7063 101.45L84.987 105.169L88.7064 108.888L92.4257 105.169L88.7063 101.45Z" fill="#FFD34E"/>
<path d="M159.755 101.447L156.035 105.167L159.755 108.886L163.474 105.167L159.755 101.447Z" fill="#FFD34E"/>
<path d="M230.796 101.452L227.077 105.172L230.796 108.891L234.516 105.172L230.796 101.452Z" fill="#FFD34E"/>
<path d="M301.845 101.45L298.125 105.17L301.845 108.889L305.564 105.17L301.845 101.45Z" fill="#FFD34E"/>
<path d="M372.886 101.455L369.167 105.175L372.886 108.894L376.605 105.175L372.886 101.455Z" fill="#FFD34E"/>
<path d="M443.934 101.453L440.215 105.172L443.934 108.892L447.654 105.172L443.934 101.453Z" fill="#FFD34E"/>
<path d="M514.983 101.451L511.263 105.17L514.983 108.89L518.702 105.17L514.983 101.451Z" fill="#FFD34E"/>
<path d="M586.024 101.456L582.305 105.175L586.024 108.895L589.744 105.175L586.024 101.456Z" fill="#FFD34E"/>
<path d="M657.073 101.454L653.353 105.173L657.073 108.893L660.792 105.173L657.073 101.454Z" fill="#FFD34E"/>
<path d="M728.121 101.452L724.402 105.171L728.121 108.89L731.841 105.171L728.121 101.452Z" fill="#FFD34E"/>
<path d="M799.162 101.457L795.443 105.176L799.162 108.895L802.882 105.176L799.162 101.457Z" fill="#FFD34E"/>
<path d="M870.211 101.455L866.492 105.174L870.211 108.893L873.93 105.174L870.211 101.455Z" fill="#FFD34E"/>
<path d="M941.259 101.452L937.54 105.172L941.259 108.891L944.979 105.172L941.259 101.452Z" fill="#FFD34E"/>
<path d="M1012.3 101.457L1008.58 105.177L1012.3 108.896L1016.02 105.177L1012.3 101.457Z" fill="#FFD34E"/>
<path d="M1083.35 101.455L1079.63 105.175L1083.35 108.894L1087.07 105.175L1083.35 101.455Z" fill="#FFD34E"/>
<path d="M1154.39 101.46L1150.67 105.18L1154.39 108.899L1158.11 105.18L1154.39 101.46Z" fill="#FFD34E"/>
<path d="M1225.44 101.458L1221.72 105.178L1225.44 108.897L1229.16 105.178L1225.44 101.458Z" fill="#FFD34E"/>
<path d="M1296.49 101.456L1292.77 105.175L1296.49 108.895L1300.21 105.175L1296.49 101.456Z" fill="#FFD34E"/>
<path d="M1367.53 101.461L1363.81 105.18L1367.53 108.9L1371.25 105.18L1367.53 101.461Z" fill="#FFD34E"/>
<path d="M1438.58 101.459L1434.86 105.178L1438.58 108.898L1442.3 105.178L1438.58 101.459Z" fill="#FFD34E"/>
<path d="M1509.63 101.457L1505.91 105.176L1509.63 108.895L1513.34 105.176L1509.63 101.457Z" fill="#FFD34E"/>
<path d="M1580.67 101.462L1576.95 105.181L1580.67 108.9L1584.39 105.181L1580.67 101.462Z" fill="#FFD34E"/>
<path d="M1651.72 101.46L1648 105.179L1651.72 108.898L1655.43 105.179L1651.72 101.46Z" fill="#FFD34E"/>
<path d="M1722.76 101.465L1719.04 105.184L1722.76 108.903L1726.48 105.184L1722.76 101.465Z" fill="#FFD34E"/>
<path d="M1793.81 101.463L1790.09 105.182L1793.81 108.901L1797.52 105.182L1793.81 101.463Z" fill="#FFD34E"/>
<path d="M1864.85 101.46L1861.13 105.18L1864.85 108.899L1868.57 105.18L1864.85 101.46Z" fill="#FFD34E"/>
<path d="M17.6614 34.8736L15.2219 37.3131L17.6614 39.7526L20.1009 37.3131L17.6614 34.8736Z" fill="#FFD34E"/>
<path d="M88.7028 34.8786L86.2633 37.3181L88.7028 39.7576L91.1423 37.3181L88.7028 34.8786Z" fill="#FFD34E"/>
<path d="M159.751 34.8764L157.312 37.3159L159.751 39.7554L162.191 37.3159L159.751 34.8764Z" fill="#FFD34E"/>
<path d="M230.8 34.8743L228.36 37.3138L230.8 39.7533L233.239 37.3138L230.8 34.8743Z" fill="#FFD34E"/>
<path d="M301.841 34.8793L299.402 37.3188L301.841 39.7583L304.281 37.3188L301.841 34.8793Z" fill="#FFD34E"/>
<path d="M372.89 34.8773L370.45 37.3168L372.89 39.7563L375.329 37.3168L372.89 34.8773Z" fill="#FFD34E"/>
<path d="M443.938 34.8751L441.499 37.3146L443.938 39.7541L446.378 37.3146L443.938 34.8751Z" fill="#FFD34E"/>
<path d="M514.979 34.88L512.54 37.3195L514.979 39.759L517.419 37.3195L514.979 34.88Z" fill="#FFD34E"/>
<path d="M586.028 34.878L583.588 37.3175L586.028 39.757L588.467 37.3175L586.028 34.878Z" fill="#FFD34E"/>
<path d="M657.076 34.8758L654.637 37.3153L657.076 39.7548L659.516 37.3153L657.076 34.8758Z" fill="#FFD34E"/>
<path d="M728.118 34.8809L725.678 37.3203L728.118 39.7598L730.557 37.3203L728.118 34.8809Z" fill="#FFD34E"/>
<path d="M799.166 34.8786L796.727 37.3181L799.166 39.7577L801.606 37.3181L799.166 34.8786Z" fill="#FFD34E"/>
<path d="M870.207 34.8836L867.768 37.3231L870.207 39.7626L872.647 37.3231L870.207 34.8836Z" fill="#FFD34E"/>
<path d="M941.256 34.8816L938.816 37.321L941.256 39.7605L943.695 37.321L941.256 34.8816Z" fill="#FFD34E"/>
<path d="M1012.3 34.8794L1009.86 37.3189L1012.3 39.7584L1014.74 37.3189L1012.3 34.8794Z" fill="#FFD34E"/>
<path d="M1083.35 34.8844L1080.91 37.3239L1083.35 39.7634L1085.79 37.3239L1083.35 34.8844Z" fill="#FFD34E"/>
<path d="M1154.39 34.8822L1151.95 37.3217L1154.39 39.7612L1156.83 37.3217L1154.39 34.8822Z" fill="#FFD34E"/>
<path d="M1225.44 34.88L1223 37.3196L1225.44 39.7591L1227.88 37.3195L1225.44 34.88Z" fill="#FFD34E"/>
<path d="M1296.48 34.885L1294.04 37.3245L1296.48 39.764L1298.92 37.3245L1296.48 34.885Z" fill="#FFD34E"/>
<path d="M1367.53 34.883L1365.09 37.3226L1367.53 39.7621L1369.97 37.3225L1367.53 34.883Z" fill="#FFD34E"/>
<path d="M1438.57 34.8879L1436.13 37.3275L1438.57 39.767L1441.01 37.3274L1438.57 34.8879Z" fill="#FFD34E"/>
<path d="M1509.62 34.8858L1507.18 37.3253L1509.62 39.7648L1512.06 37.3253L1509.62 34.8858Z" fill="#FFD34E"/>
<path d="M1580.67 34.8836L1578.23 37.3232L1580.67 39.7627L1583.11 37.3231L1580.67 34.8836Z" fill="#FFD34E"/>
<path d="M1651.71 34.8887L1649.27 37.3282L1651.71 39.7677L1654.15 37.3282L1651.71 34.8887Z" fill="#FFD34E"/>
<path d="M1722.76 34.8865L1720.32 37.326L1722.76 39.7655L1725.2 37.326L1722.76 34.8865Z" fill="#FFD34E"/>
<path d="M1793.81 34.8843L1791.37 37.3239L1793.81 39.7634L1796.25 37.3238L1793.81 34.8843Z" fill="#FFD34E"/>
<path d="M1864.85 34.8894L1862.41 37.3289L1864.85 39.7684L1867.29 37.3289L1864.85 34.8894Z" fill="#FFD34E"/>
</g>
<g opacity="0.2">
<path d="M53.1288 532.878L40.4505 545.556L53.1288 558.234L65.8071 545.556L53.1288 532.878Z" fill="#FFD34E"/>
<path d="M124.177 532.876L111.499 545.554L124.177 558.232L136.855 545.554L124.177 532.876Z" fill="#FFD34E"/>
<path d="M195.219 532.881L182.54 545.559L195.219 558.237L207.897 545.559L195.219 532.881Z" fill="#FFD34E"/>
<path d="M266.267 532.878L253.589 545.557L266.267 558.235L278.945 545.557L266.267 532.878Z" fill="#FFD34E"/>
<path d="M337.315 532.876L324.637 545.555L337.315 558.233L349.994 545.555L337.315 532.876Z" fill="#FFD34E"/>
<path d="M408.357 532.881L395.679 545.56L408.357 558.238L421.035 545.56L408.357 532.881Z" fill="#FFD34E"/>
<path d="M479.405 532.879L466.727 545.557L479.405 558.236L492.084 545.557L479.405 532.879Z" fill="#FFD34E"/>
<path d="M550.454 532.877L537.775 545.555L550.454 558.234L563.132 545.555L550.454 532.877Z" fill="#FFD34E"/>
<path d="M621.495 532.882L608.817 545.56L621.495 558.239L634.173 545.56L621.495 532.882Z" fill="#FFD34E"/>
<path d="M692.544 532.88L679.865 545.558L692.544 558.236L705.222 545.558L692.544 532.88Z" fill="#FFD34E"/>
<path d="M763.592 532.878L750.914 545.556L763.592 558.234L776.27 545.556L763.592 532.878Z" fill="#FFD34E"/>
<path d="M834.633 532.883L821.955 545.561L834.633 558.239L847.312 545.561L834.633 532.883Z" fill="#FFD34E"/>
<path d="M905.682 532.881L893.003 545.559L905.682 558.237L918.36 545.559L905.682 532.881Z" fill="#FFD34E"/>
<path d="M976.723 532.886L964.045 545.564L976.723 558.242L989.401 545.564L976.723 532.886Z" fill="#FFD34E"/>
<path d="M1047.77 532.883L1035.09 545.562L1047.77 558.24L1060.45 545.562L1047.77 532.883Z" fill="#FFD34E"/>
<path d="M1118.82 532.881L1106.14 545.56L1118.82 558.238L1131.5 545.56L1118.82 532.881Z" fill="#FFD34E"/>
<path d="M1189.86 532.886L1177.18 545.565L1189.86 558.243L1202.54 545.565L1189.86 532.886Z" fill="#FFD34E"/>
<path d="M1260.91 532.884L1248.23 545.563L1260.91 558.241L1273.59 545.563L1260.91 532.884Z" fill="#FFD34E"/>
<path d="M1331.96 532.882L1319.28 545.56L1331.96 558.239L1344.64 545.56L1331.96 532.882Z" fill="#FFD34E"/>
<path d="M1403 532.887L1390.32 545.565L1403 558.244L1415.68 545.566L1403 532.887Z" fill="#FFD34E"/>
<path d="M1474.05 532.885L1461.37 545.563L1474.05 558.242L1486.73 545.563L1474.05 532.885Z" fill="#FFD34E"/>
<path d="M1545.09 532.89L1532.41 545.568L1545.09 558.247L1557.77 545.568L1545.09 532.89Z" fill="#FFD34E"/>
<path d="M1616.14 532.888L1603.46 545.566L1616.14 558.245L1628.82 545.566L1616.14 532.888Z" fill="#FFD34E"/>
<path d="M1687.19 532.886L1674.51 545.564L1687.19 558.242L1699.86 545.564L1687.19 532.886Z" fill="#FFD34E"/>
<path d="M1758.23 532.891L1745.55 545.569L1758.23 558.247L1770.91 545.569L1758.23 532.891Z" fill="#FFD34E"/>
<path d="M1829.28 532.889L1816.6 545.567L1829.28 558.245L1841.95 545.567L1829.28 532.889Z" fill="#FFD34E"/>
<path d="M1900.32 532.886L1887.65 545.565L1900.32 558.243L1913 545.565L1900.32 532.886Z" fill="#FFD34E"/>
<path d="M53.1325 466.3L41.734 477.698L53.1325 489.097L64.5309 477.698L53.1325 466.3Z" fill="#FFD34E"/>
<path d="M124.174 466.305L112.775 477.703L124.174 489.102L135.572 477.703L124.174 466.305Z" fill="#FFD34E"/>
<path d="M195.222 466.303L183.824 477.701L195.222 489.1L206.621 477.701L195.222 466.303Z" fill="#FFD34E"/>
<path d="M266.271 466.301L254.872 477.699L266.271 489.098L277.669 477.699L266.271 466.301Z" fill="#FFD34E"/>
<path d="M337.312 466.306L325.914 477.704L337.312 489.102L348.71 477.704L337.312 466.306Z" fill="#FFD34E"/>
<path d="M408.36 466.304L396.962 477.702L408.36 489.1L419.759 477.702L408.36 466.304Z" fill="#FFD34E"/>
<path d="M479.409 466.301L468.01 477.7L479.409 489.098L490.807 477.7L479.409 466.301Z" fill="#FFD34E"/>
<path d="M550.45 466.306L539.052 477.705L550.45 489.103L561.849 477.705L550.45 466.306Z" fill="#FFD34E"/>
<path d="M621.499 466.304L610.1 477.703L621.499 489.101L632.897 477.703L621.499 466.304Z" fill="#FFD34E"/>
<path d="M692.54 466.309L681.142 477.708L692.54 489.106L703.938 477.708L692.54 466.309Z" fill="#FFD34E"/>
<path d="M763.589 466.307L752.19 477.706L763.589 489.104L774.987 477.706L763.589 466.307Z" fill="#FFD34E"/>
<path d="M834.637 466.305L823.239 477.703L834.637 489.102L846.035 477.703L834.637 466.305Z" fill="#FFD34E"/>
<path d="M905.678 466.31L894.28 477.708L905.678 489.107L917.077 477.708L905.678 466.31Z" fill="#FFD34E"/>
<path d="M976.727 466.308L965.328 477.706L976.727 489.105L988.125 477.706L976.727 466.308Z" fill="#FFD34E"/>
<path d="M1047.78 466.306L1036.38 477.704L1047.78 489.103L1059.17 477.704L1047.78 466.306Z" fill="#FFD34E"/>
<path d="M1118.82 466.311L1107.42 477.709L1118.82 489.108L1130.22 477.709L1118.82 466.311Z" fill="#FFD34E"/>
<path d="M1189.87 466.309L1178.47 477.707L1189.87 489.105L1201.26 477.707L1189.87 466.309Z" fill="#FFD34E"/>
<path d="M1260.91 466.313L1249.51 477.712L1260.91 489.11L1272.3 477.712L1260.91 466.313Z" fill="#FFD34E"/>
<path d="M1331.95 466.311L1320.56 477.71L1331.95 489.108L1343.35 477.71L1331.95 466.311Z" fill="#FFD34E"/>
<path d="M1403 466.309L1391.6 477.708L1403 489.106L1414.4 477.708L1403 466.309Z" fill="#FFD34E"/>
<path d="M1474.04 466.314L1462.65 477.713L1474.04 489.111L1485.44 477.713L1474.04 466.314Z" fill="#FFD34E"/>
<path d="M1545.09 466.312L1533.69 477.711L1545.09 489.109L1556.49 477.711L1545.09 466.312Z" fill="#FFD34E"/>
<path d="M1616.14 466.31L1604.74 477.708L1616.14 489.107L1627.54 477.708L1616.14 466.31Z" fill="#FFD34E"/>
<path d="M1687.18 466.315L1675.78 477.713L1687.18 489.112L1698.58 477.713L1687.18 466.315Z" fill="#FFD34E"/>
<path d="M1758.23 466.313L1746.83 477.711L1758.23 489.11L1769.63 477.711L1758.23 466.313Z" fill="#FFD34E"/>
<path d="M1829.28 466.311L1817.88 477.709L1829.28 489.108L1840.68 477.709L1829.28 466.311Z" fill="#FFD34E"/>
<path d="M1900.32 466.316L1888.92 477.714L1900.32 489.113L1911.72 477.714L1900.32 466.316Z" fill="#FFD34E"/>
<path d="M53.129 399.729L43.0104 409.847L53.129 419.966L63.2476 409.847L53.129 399.729Z" fill="#FFD34E"/>
<path d="M124.177 399.727L114.059 409.845L124.177 419.964L134.296 409.845L124.177 399.727Z" fill="#FFD34E"/>
<path d="M195.226 399.725L185.107 409.843L195.226 419.962L205.344 409.843L195.226 399.725Z" fill="#FFD34E"/>
<path d="M266.267 399.729L256.149 409.848L266.267 419.967L276.386 409.848L266.267 399.729Z" fill="#FFD34E"/>
<path d="M337.316 399.727L327.197 409.846L337.316 419.965L347.434 409.846L337.316 399.727Z" fill="#FFD34E"/>
<path d="M408.357 399.732L398.238 409.851L408.357 419.97L418.476 409.851L408.357 399.732Z" fill="#FFD34E"/>
<path d="M479.405 399.73L469.287 409.849L479.405 419.968L489.524 409.849L479.405 399.73Z" fill="#FFD34E"/>
<path d="M550.454 399.728L540.335 409.847L550.454 419.965L560.572 409.847L550.454 399.728Z" fill="#FFD34E"/>
<path d="M621.495 399.733L611.377 409.852L621.495 419.97L631.614 409.852L621.495 399.733Z" fill="#FFD34E"/>
<path d="M692.544 399.731L682.425 409.85L692.544 419.968L702.662 409.85L692.544 399.731Z" fill="#FFD34E"/>
<path d="M763.592 399.729L753.474 409.848L763.592 419.966L773.711 409.848L763.592 399.729Z" fill="#FFD34E"/>
<path d="M834.633 399.734L824.515 409.853L834.633 419.971L844.752 409.853L834.633 399.734Z" fill="#FFD34E"/>
<path d="M905.682 399.732L895.563 409.85L905.682 419.969L915.801 409.85L905.682 399.732Z" fill="#FFD34E"/>
<path d="M976.73 399.73L966.612 409.848L976.73 419.967L986.849 409.848L976.73 399.73Z" fill="#FFD34E"/>
<path d="M1047.77 399.735L1037.65 409.853L1047.77 419.972L1057.89 409.853L1047.77 399.735Z" fill="#FFD34E"/>
<path d="M1118.82 399.732L1108.7 409.851L1118.82 419.97L1128.94 409.851L1118.82 399.732Z" fill="#FFD34E"/>
<path d="M1189.86 399.737L1179.74 409.856L1189.86 419.975L1199.98 409.856L1189.86 399.737Z" fill="#FFD34E"/>
<path d="M1260.91 399.735L1250.79 409.854L1260.91 419.973L1271.03 409.854L1260.91 399.735Z" fill="#FFD34E"/>
<path d="M1331.96 399.733L1321.84 409.852L1331.96 419.971L1342.08 409.852L1331.96 399.733Z" fill="#FFD34E"/>
<path d="M1403 399.738L1392.88 409.857L1403 419.975L1413.12 409.857L1403 399.738Z" fill="#FFD34E"/>
<path d="M1474.05 399.736L1463.93 409.855L1474.05 419.973L1484.17 409.855L1474.05 399.736Z" fill="#FFD34E"/>
<path d="M1545.1 399.734L1534.98 409.853L1545.1 419.971L1555.22 409.853L1545.1 399.734Z" fill="#FFD34E"/>
<path d="M1616.14 399.739L1606.02 409.858L1616.14 419.976L1626.26 409.857L1616.14 399.739Z" fill="#FFD34E"/>
<path d="M1687.19 399.737L1677.07 409.855L1687.19 419.974L1697.31 409.855L1687.19 399.737Z" fill="#FFD34E"/>
<path d="M1758.23 399.742L1748.11 409.86L1758.23 419.979L1768.35 409.86L1758.23 399.742Z" fill="#FFD34E"/>
<path d="M1829.28 399.74L1819.16 409.858L1829.28 419.977L1839.39 409.858L1829.28 399.74Z" fill="#FFD34E"/>
<path d="M1900.32 399.737L1890.21 409.856L1900.32 419.975L1910.44 409.856L1900.32 399.737Z" fill="#FFD34E"/>
<path d="M53.1326 333.151L44.2938 341.99L53.1326 350.828L61.9713 341.99L53.1326 333.151Z" fill="#FFD34E"/>
<path d="M124.174 333.156L115.335 341.995L124.174 350.833L133.013 341.995L124.174 333.156Z" fill="#FFD34E"/>
<path d="M195.222 333.154L186.384 341.992L195.222 350.831L204.061 341.992L195.222 333.154Z" fill="#FFD34E"/>
<path d="M266.271 333.151L257.432 341.99L266.271 350.829L275.11 341.99L266.271 333.151Z" fill="#FFD34E"/>
<path d="M337.312 333.156L328.473 341.995L337.312 350.834L346.151 341.995L337.312 333.156Z" fill="#FFD34E"/>
<path d="M408.361 333.154L399.522 341.993L408.361 350.832L417.199 341.993L408.361 333.154Z" fill="#FFD34E"/>
<path d="M479.409 333.152L470.57 341.991L479.409 350.83L488.248 341.991L479.409 333.152Z" fill="#FFD34E"/>
<path d="M550.45 333.157L541.612 341.996L550.45 350.835L559.289 341.996L550.45 333.157Z" fill="#FFD34E"/>
<path d="M621.499 333.155L612.66 341.994L621.499 350.833L630.338 341.994L621.499 333.155Z" fill="#FFD34E"/>
<path d="M692.547 333.153L683.708 341.992L692.547 350.83L701.386 341.992L692.547 333.153Z" fill="#FFD34E"/>
<path d="M763.589 333.158L754.75 341.997L763.589 350.835L772.427 341.997L763.589 333.158Z" fill="#FFD34E"/>
<path d="M834.637 333.156L825.798 341.994L834.637 350.833L843.476 341.994L834.637 333.156Z" fill="#FFD34E"/>
<path d="M905.678 333.161L896.84 342L905.678 350.838L914.517 342L905.678 333.161Z" fill="#FFD34E"/>
<path d="M976.727 333.159L967.888 341.997L976.727 350.836L985.566 341.997L976.727 333.159Z" fill="#FFD34E"/>
<path d="M1047.78 333.157L1038.94 341.995L1047.78 350.834L1056.61 341.995L1047.78 333.157Z" fill="#FFD34E"/>
<path d="M1118.82 333.161L1109.98 342L1118.82 350.839L1127.66 342L1118.82 333.161Z" fill="#FFD34E"/>
<path d="M1189.87 333.159L1181.03 341.998L1189.87 350.837L1198.7 341.998L1189.87 333.159Z" fill="#FFD34E"/>
<path d="M1260.91 333.157L1252.08 341.996L1260.91 350.835L1269.75 341.996L1260.91 333.157Z" fill="#FFD34E"/>
<path d="M1331.95 333.162L1323.12 342.001L1331.95 350.84L1340.79 342.001L1331.95 333.162Z" fill="#FFD34E"/>
<path d="M1403 333.16L1394.16 341.999L1403 350.838L1411.84 341.999L1403 333.16Z" fill="#FFD34E"/>
<path d="M1474.05 333.158L1465.21 341.997L1474.05 350.835L1482.89 341.997L1474.05 333.158Z" fill="#FFD34E"/>
<path d="M1545.09 333.163L1536.25 342.002L1545.09 350.84L1553.93 342.002L1545.09 333.163Z" fill="#FFD34E"/>
<path d="M1616.14 333.161L1607.3 342L1616.14 350.838L1624.98 342L1616.14 333.161Z" fill="#FFD34E"/>
<path d="M1687.18 333.166L1678.34 342.005L1687.18 350.843L1696.02 342.005L1687.18 333.166Z" fill="#FFD34E"/>
<path d="M1758.23 333.164L1749.39 342.002L1758.23 350.841L1767.07 342.002L1758.23 333.164Z" fill="#FFD34E"/>
<path d="M1829.28 333.161L1820.44 342L1829.28 350.839L1838.12 342L1829.28 333.161Z" fill="#FFD34E"/>
<path d="M1900.32 333.166L1891.48 342.005L1900.32 350.844L1909.16 342.005L1900.32 333.166Z" fill="#FFD34E"/>
<path d="M53.1362 266.587L45.5773 274.146L53.1362 281.705L60.6951 274.146L53.1362 266.587Z" fill="#FFD34E"/>
<path d="M124.185 266.585L116.626 274.144L124.185 281.703L131.744 274.144L124.185 266.585Z" fill="#FFD34E"/>
<path d="M195.233 266.583L187.674 274.142L195.233 281.7L202.792 274.142L195.233 266.583Z" fill="#FFD34E"/>
<path d="M266.274 266.588L258.716 274.146L266.274 281.705L273.833 274.146L266.274 266.588Z" fill="#FFD34E"/>
<path d="M337.323 266.586L329.764 274.144L337.323 281.703L344.882 274.144L337.323 266.586Z" fill="#FFD34E"/>
<path d="M408.371 266.583L400.812 274.142L408.371 281.701L415.93 274.142L408.371 266.583Z" fill="#FFD34E"/>
<path d="M479.413 266.588L471.854 274.147L479.413 281.706L486.972 274.147L479.413 266.588Z" fill="#FFD34E"/>
<path d="M550.461 266.586L542.902 274.145L550.461 281.704L558.02 274.145L550.461 266.586Z" fill="#FFD34E"/>
<path d="M621.503 266.591L613.944 274.15L621.503 281.709L629.061 274.15L621.503 266.591Z" fill="#FFD34E"/>
<path d="M692.551 266.589L684.992 274.148L692.551 281.707L700.11 274.148L692.551 266.589Z" fill="#FFD34E"/>
<path d="M763.599 266.587L756.041 274.146L763.599 281.705L771.158 274.146L763.599 266.587Z" fill="#FFD34E"/>
<path d="M834.641 266.592L827.082 274.151L834.641 281.71L842.2 274.151L834.641 266.592Z" fill="#FFD34E"/>
<path d="M905.689 266.59L898.13 274.149L905.689 281.708L913.248 274.149L905.689 266.59Z" fill="#FFD34E"/>
<path d="M976.738 266.588L969.179 274.147L976.738 281.705L984.297 274.147L976.738 266.588Z" fill="#FFD34E"/>
<path d="M1047.78 266.593L1040.22 274.152L1047.78 281.71L1055.34 274.152L1047.78 266.593Z" fill="#FFD34E"/>
<path d="M1118.83 266.59L1111.27 274.149L1118.83 281.708L1126.39 274.149L1118.83 266.59Z" fill="#FFD34E"/>
<path d="M1189.88 266.588L1182.32 274.147L1189.88 281.706L1197.43 274.147L1189.88 266.588Z" fill="#FFD34E"/>
<path d="M1260.92 266.593L1253.36 274.152L1260.92 281.711L1268.48 274.152L1260.92 266.593Z" fill="#FFD34E"/>
<path d="M1331.97 266.591L1324.41 274.15L1331.97 281.709L1339.52 274.15L1331.97 266.591Z" fill="#FFD34E"/>
<path d="M1403.01 266.596L1395.45 274.155L1403.01 281.714L1410.57 274.155L1403.01 266.596Z" fill="#FFD34E"/>
<path d="M1474.06 266.594L1466.5 274.153L1474.06 281.712L1481.61 274.153L1474.06 266.594Z" fill="#FFD34E"/>
<path d="M1545.1 266.592L1537.55 274.151L1545.1 281.71L1552.66 274.151L1545.1 266.592Z" fill="#FFD34E"/>
<path d="M1616.15 266.597L1608.59 274.156L1616.15 281.715L1623.7 274.156L1616.15 266.597Z" fill="#FFD34E"/>
<path d="M1687.19 266.595L1679.63 274.154L1687.19 281.713L1694.75 274.154L1687.19 266.595Z" fill="#FFD34E"/>
<path d="M1758.24 266.593L1750.68 274.152L1758.24 281.71L1765.8 274.152L1758.24 266.593Z" fill="#FFD34E"/>
<path d="M1829.28 266.598L1821.72 274.157L1829.28 281.716L1836.84 274.157L1829.28 266.598Z" fill="#FFD34E"/>
<path d="M1900.33 266.596L1892.77 274.154L1900.33 281.713L1907.89 274.155L1900.33 266.596Z" fill="#FFD34E"/>
<path d="M53.1398 200.009L46.8608 206.288L53.1398 212.567L59.4189 206.288L53.1398 200.009Z" fill="#FFD34E"/>
<path d="M124.188 200.007L117.909 206.286L124.188 212.565L130.467 206.286L124.188 200.007Z" fill="#FFD34E"/>
<path d="M195.23 200.012L188.951 206.291L195.23 212.57L201.509 206.291L195.23 200.012Z" fill="#FFD34E"/>
<path d="M266.278 200.01L259.999 206.289L266.278 212.568L272.557 206.289L266.278 200.01Z" fill="#FFD34E"/>
<path d="M337.319 200.015L331.04 206.294L337.319 212.573L343.598 206.294L337.319 200.015Z" fill="#FFD34E"/>
<path d="M408.368 200.012L402.089 206.291L408.368 212.57L414.647 206.291L408.368 200.012Z" fill="#FFD34E"/>
<path d="M479.416 200.01L473.137 206.289L479.416 212.568L485.695 206.289L479.416 200.01Z" fill="#FFD34E"/>
<path d="M550.458 200.015L544.179 206.294L550.458 212.573L556.737 206.294L550.458 200.015Z" fill="#FFD34E"/>
<path d="M621.506 200.013L615.227 206.292L621.506 212.571L627.785 206.292L621.506 200.013Z" fill="#FFD34E"/>
<path d="M692.555 200.011L686.276 206.29L692.555 212.569L698.834 206.29L692.555 200.011Z" fill="#FFD34E"/>
<path d="M763.596 200.016L757.317 206.295L763.596 212.574L769.875 206.295L763.596 200.016Z" fill="#FFD34E"/>
<path d="M834.644 200.014L828.365 206.293L834.644 212.572L840.923 206.293L834.644 200.014Z" fill="#FFD34E"/>
<path d="M905.693 200.012L899.414 206.291L905.693 212.57L911.972 206.291L905.693 200.012Z" fill="#FFD34E"/>
<path d="M976.734 200.017L970.455 206.296L976.734 212.575L983.013 206.296L976.734 200.017Z" fill="#FFD34E"/>
<path d="M1047.78 200.015L1041.5 206.294L1047.78 212.573L1054.06 206.294L1047.78 200.015Z" fill="#FFD34E"/>
<path d="M1118.82 200.019L1112.54 206.299L1118.82 212.578L1125.1 206.299L1118.82 200.019Z" fill="#FFD34E"/>
<path d="M1189.87 200.017L1183.59 206.296L1189.87 212.575L1196.15 206.296L1189.87 200.017Z" fill="#FFD34E"/>
<path d="M1260.92 200.015L1254.64 206.294L1260.92 212.573L1267.2 206.294L1260.92 200.015Z" fill="#FFD34E"/>
<path d="M1331.96 200.02L1325.68 206.299L1331.96 212.578L1338.24 206.299L1331.96 200.02Z" fill="#FFD34E"/>
<path d="M1403.01 200.018L1396.73 206.297L1403.01 212.576L1409.29 206.297L1403.01 200.018Z" fill="#FFD34E"/>
<path d="M1474.06 200.016L1467.78 206.295L1474.06 212.574L1480.34 206.295L1474.06 200.016Z" fill="#FFD34E"/>
<path d="M1545.1 200.021L1538.82 206.3L1545.1 212.579L1551.38 206.3L1545.1 200.021Z" fill="#FFD34E"/>
<path d="M1616.15 200.019L1609.87 206.298L1616.15 212.577L1622.43 206.298L1616.15 200.019Z" fill="#FFD34E"/>
<path d="M1687.2 200.017L1680.92 206.296L1687.2 212.575L1693.48 206.296L1687.2 200.017Z" fill="#FFD34E"/>
<path d="M1758.24 200.022L1751.96 206.301L1758.24 212.58L1764.52 206.301L1758.24 200.022Z" fill="#FFD34E"/>
<path d="M1829.29 200.02L1823.01 206.299L1829.29 212.578L1835.57 206.299L1829.29 200.02Z" fill="#FFD34E"/>
<path d="M1900.33 200.024L1894.05 206.304L1900.33 212.583L1906.61 206.304L1900.33 200.024Z" fill="#FFD34E"/>
<path d="M53.1433 133.431L48.1442 138.43L53.1434 143.429L58.1425 138.43L53.1433 133.431Z" fill="#FFD34E"/>
<path d="M124.185 133.436L119.186 138.435L124.185 143.434L129.184 138.435L124.185 133.436Z" fill="#FFD34E"/>
<path d="M195.233 133.434L190.234 138.433L195.233 143.432L200.232 138.433L195.233 133.434Z" fill="#FFD34E"/>
<path d="M266.275 133.439L261.275 138.438L266.275 143.437L271.274 138.438L266.275 133.439Z" fill="#FFD34E"/>
<path d="M337.323 133.436L332.324 138.436L337.323 143.435L342.322 138.436L337.323 133.436Z" fill="#FFD34E"/>
<path d="M408.371 133.434L403.372 138.434L408.372 143.433L413.371 138.434L408.371 133.434Z" fill="#FFD34E"/>
<path d="M479.413 133.439L474.414 138.438L479.413 143.438L484.412 138.438L479.413 133.439Z" fill="#FFD34E"/>
<path d="M550.461 133.437L545.462 138.436L550.461 143.436L555.46 138.436L550.461 133.437Z" fill="#FFD34E"/>
<path d="M621.51 133.435L616.51 138.434L621.51 143.433L626.509 138.434L621.51 133.435Z" fill="#FFD34E"/>
<path d="M692.551 133.44L687.552 138.439L692.551 143.438L697.55 138.439L692.551 133.44Z" fill="#FFD34E"/>
<path d="M763.6 133.438L758.6 138.437L763.6 143.436L768.599 138.437L763.6 133.438Z" fill="#FFD34E"/>
<path d="M834.641 133.443L829.642 138.442L834.641 143.441L839.64 138.442L834.641 133.443Z" fill="#FFD34E"/>
<path d="M905.689 133.441L900.69 138.44L905.689 143.439L910.689 138.44L905.689 133.441Z" fill="#FFD34E"/>
<path d="M976.738 133.439L971.739 138.438L976.738 143.437L981.737 138.438L976.738 133.439Z" fill="#FFD34E"/>
<path d="M1047.78 133.444L1042.78 138.443L1047.78 143.442L1052.78 138.443L1047.78 133.444Z" fill="#FFD34E"/>
<path d="M1118.83 133.442L1113.83 138.441L1118.83 143.44L1123.83 138.441L1118.83 133.442Z" fill="#FFD34E"/>
<path d="M1189.88 133.439L1184.88 138.439L1189.88 143.438L1194.88 138.438L1189.88 133.439Z" fill="#FFD34E"/>
<path d="M1260.92 133.444L1255.92 138.444L1260.92 143.443L1265.92 138.444L1260.92 133.444Z" fill="#FFD34E"/>
<path d="M1331.97 133.442L1326.97 138.441L1331.97 143.441L1336.97 138.441L1331.97 133.442Z" fill="#FFD34E"/>
<path d="M1403.01 133.44L1398.02 138.439L1403.01 143.438L1408.01 138.439L1403.01 133.44Z" fill="#FFD34E"/>
<path d="M1474.06 133.445L1469.06 138.444L1474.06 143.443L1479.06 138.444L1474.06 133.445Z" fill="#FFD34E"/>
<path d="M1545.1 133.443L1540.1 138.442L1545.1 143.441L1550.1 138.442L1545.1 133.443Z" fill="#FFD34E"/>
<path d="M1616.15 133.448L1611.15 138.447L1616.15 143.446L1621.14 138.447L1616.15 133.448Z" fill="#FFD34E"/>
<path d="M1687.19 133.446L1682.19 138.445L1687.19 143.444L1692.19 138.445L1687.19 133.446Z" fill="#FFD34E"/>
<path d="M1758.24 133.444L1753.24 138.443L1758.24 143.442L1763.24 138.443L1758.24 133.444Z" fill="#FFD34E"/>
<path d="M1829.28 133.449L1824.28 138.448L1829.28 143.447L1834.28 138.448L1829.28 133.449Z" fill="#FFD34E"/>
<path d="M1900.33 133.447L1895.33 138.446L1900.33 143.445L1905.33 138.446L1900.33 133.447Z" fill="#FFD34E"/>
<path d="M53.14 66.8598L49.4207 70.5791L53.14 74.2985L56.8594 70.5791L53.14 66.8598Z" fill="#FFD34E"/>
<path d="M124.188 66.8576L120.469 70.577L124.188 74.2963L127.908 70.577L124.188 66.8576Z" fill="#FFD34E"/>
<path d="M195.23 66.8625L191.51 70.5819L195.23 74.3012L198.949 70.5819L195.23 66.8625Z" fill="#FFD34E"/>
<path d="M266.278 66.8605L262.559 70.5798L266.278 74.2992L269.998 70.5798L266.278 66.8605Z" fill="#FFD34E"/>
<path d="M337.327 66.8583L333.607 70.5777L337.327 74.297L341.046 70.5777L337.327 66.8583Z" fill="#FFD34E"/>
<path d="M408.368 66.8633L404.649 70.5827L408.368 74.3021L412.087 70.5827L408.368 66.8633Z" fill="#FFD34E"/>
<path d="M479.416 66.8612L475.697 70.5806L479.416 74.2999L483.136 70.5806L479.416 66.8612Z" fill="#FFD34E"/>
<path d="M550.465 66.8591L546.746 70.5784L550.465 74.2977L554.184 70.5784L550.465 66.8591Z" fill="#FFD34E"/>
<path d="M621.506 66.8641L617.787 70.5834L621.506 74.3027L625.226 70.5834L621.506 66.8641Z" fill="#FFD34E"/>
<path d="M692.555 66.8619L688.835 70.5813L692.555 74.3006L696.274 70.5813L692.555 66.8619Z" fill="#FFD34E"/>
<path d="M763.596 66.8669L759.877 70.5863L763.596 74.3056L767.316 70.5863L763.596 66.8669Z" fill="#FFD34E"/>
<path d="M834.645 66.8648L830.925 70.5841L834.645 74.3034L838.364 70.5841L834.645 66.8648Z" fill="#FFD34E"/>
<path d="M905.693 66.8627L901.974 70.582L905.693 74.3013L909.412 70.582L905.693 66.8627Z" fill="#FFD34E"/>
<path d="M976.734 66.8676L973.015 70.587L976.734 74.3063L980.454 70.587L976.734 66.8676Z" fill="#FFD34E"/>
<path d="M1047.78 66.8655L1044.06 70.5848L1047.78 74.3041L1051.5 70.5848L1047.78 66.8655Z" fill="#FFD34E"/>
<path d="M1118.83 66.8635L1115.11 70.5828L1118.83 74.3021L1122.55 70.5828L1118.83 66.8635Z" fill="#FFD34E"/>
<path d="M1189.87 66.8683L1186.15 70.5877L1189.87 74.307L1193.59 70.5877L1189.87 66.8683Z" fill="#FFD34E"/>
<path d="M1260.92 66.8661L1257.2 70.5855L1260.92 74.3048L1264.64 70.5855L1260.92 66.8661Z" fill="#FFD34E"/>
<path d="M1331.96 66.8712L1328.24 70.5906L1331.96 74.3099L1335.68 70.5906L1331.96 66.8712Z" fill="#FFD34E"/>
<path d="M1403.01 66.8691L1399.29 70.5885L1403.01 74.3078L1406.73 70.5885L1403.01 66.8691Z" fill="#FFD34E"/>
<path d="M1474.06 66.867L1470.34 70.5864L1474.06 74.3057L1477.78 70.5864L1474.06 66.867Z" fill="#FFD34E"/>
<path d="M1545.1 66.8719L1541.38 70.5912L1545.1 74.3106L1548.82 70.5912L1545.1 66.8719Z" fill="#FFD34E"/>
<path d="M1616.15 66.8698L1612.43 70.5892L1616.15 74.3085L1619.87 70.5892L1616.15 66.8698Z" fill="#FFD34E"/>
<path d="M1687.2 66.8677L1683.48 70.5871L1687.2 74.3064L1690.92 70.5871L1687.2 66.8677Z" fill="#FFD34E"/>
<path d="M1758.24 66.8726L1754.52 70.5919L1758.24 74.3113L1761.96 70.5919L1758.24 66.8726Z" fill="#FFD34E"/>
<path d="M1829.29 66.8704L1825.57 70.5898L1829.29 74.3091L1833.01 70.5897L1829.29 66.8704Z" fill="#FFD34E"/>
<path d="M1900.34 66.8685L1896.62 70.5879L1900.34 74.3072L1904.05 70.5879L1900.34 66.8685Z" fill="#FFD34E"/>
<path d="M53.1435 0.281597L50.704 2.7211L53.1435 5.16061L55.583 2.7211L53.1435 0.281597Z" fill="#FFD34E"/>
<path d="M124.185 0.286634L121.745 2.72614L124.185 5.16563L126.624 2.72613L124.185 0.286634Z" fill="#FFD34E"/>
<path d="M195.233 0.284487L192.794 2.72397L195.233 5.16346L197.673 2.72398L195.233 0.284487Z" fill="#FFD34E"/>
<path d="M266.282 0.282418L263.842 2.72192L266.282 5.16142L268.721 2.72192L266.282 0.282418Z" fill="#FFD34E"/>
<path d="M337.323 0.287348L334.884 2.72684L337.323 5.16634L339.763 2.72685L337.323 0.287348Z" fill="#FFD34E"/>
<path d="M408.372 0.285214L405.932 2.72467L408.372 5.16416L410.811 2.72471L408.372 0.285214Z" fill="#FFD34E"/>
<path d="M479.413 0.29017L476.974 2.72968L479.413 5.16917L481.853 2.72967L479.413 0.29017Z" fill="#FFD34E"/>
<path d="M550.461 0.288047L548.022 2.72754L550.461 5.16702L552.901 2.72753L550.461 0.288047Z" fill="#FFD34E"/>
<path d="M621.51 0.286004L619.07 2.72549L621.51 5.16498L623.949 2.72549L621.51 0.286004Z" fill="#FFD34E"/>
<path d="M692.551 0.290885L690.112 2.73038L692.551 5.16986L694.991 2.73037L692.551 0.290885Z" fill="#FFD34E"/>
<path d="M763.6 0.28884L761.16 2.72833L763.6 5.16782L766.039 2.72832L763.6 0.28884Z" fill="#FFD34E"/>
<path d="M834.648 0.286706L832.209 2.7262L834.648 5.16568L837.088 2.72619L834.648 0.286706Z" fill="#FFD34E"/>
<path d="M905.69 0.291676L903.25 2.73123L905.689 5.17074L908.129 2.73118L905.69 0.291676Z" fill="#FFD34E"/>
<path d="M976.738 0.289578L974.299 2.72903L976.738 5.16853L979.178 2.72907L976.738 0.289578Z" fill="#FFD34E"/>
<path d="M1047.78 0.294354L1045.34 2.73389L1047.78 5.17345L1050.22 2.73392L1047.78 0.294354Z" fill="#FFD34E"/>
<path d="M1118.83 0.292204L1116.39 2.73181L1118.83 5.17137L1121.27 2.73176L1118.83 0.292204Z" fill="#FFD34E"/>
<path d="M1189.88 0.290162L1187.44 2.72971L1189.88 5.16929L1192.32 2.72974L1189.88 0.290162Z" fill="#FFD34E"/>
<path d="M1260.92 0.295156L1258.48 2.73477L1260.92 5.17434L1263.36 2.73472L1260.92 0.295156Z" fill="#FFD34E"/>
<path d="M1331.97 0.293091L1329.53 2.73257L1331.97 5.17209L1334.41 2.73261L1331.97 0.293091Z" fill="#FFD34E"/>
<path d="M1403.01 0.29093L1400.58 2.73041L1403.01 5.16992L1405.45 2.73044L1403.01 0.29093Z" fill="#FFD34E"/>
<path d="M1474.06 0.295774L1471.62 2.73538L1474.06 5.17494L1476.5 2.73533L1474.06 0.295774Z" fill="#FFD34E"/>
<path d="M1545.1 0.293641L1542.67 2.73318L1545.1 5.17276L1547.54 2.73322L1545.1 0.293641Z" fill="#FFD34E"/>
<path d="M1616.15 0.291677L1613.71 2.73129L1616.15 5.17086L1618.59 2.73124L1616.15 0.291677Z" fill="#FFD34E"/>
<path d="M1687.19 0.296514L1684.75 2.73618L1687.19 5.17579L1689.63 2.73612L1687.19 0.296514Z" fill="#FFD34E"/>
<path d="M1758.24 0.294434L1755.8 2.73398L1758.24 5.17356L1760.68 2.73401L1758.24 0.294434Z" fill="#FFD34E"/>
<path d="M1829.28 0.299429L1826.84 2.73907L1829.28 5.17867L1831.72 2.73902L1829.28 0.299429Z" fill="#FFD34E"/>
<path d="M1900.33 0.297242L1897.89 2.73679L1900.33 5.17637L1902.77 2.73682L1900.33 0.297242Z" fill="#FFD34E"/>
</g>
</svg>
