<?xml version="1.0" encoding="UTF-8"?>
<svg width="700pt" height="700pt" version="1.1" viewBox="0 0 700 700" xmlns="http://www.w3.org/2000/svg" xmlns:xlink="http://www.w3.org/1999/xlink">
 <defs>
  <symbol id="u" overflow="visible">
   <path d="m25.516-1.5312c-1.3125 0.6875-2.6836 1.2031-4.1094 1.5469-1.4297 0.35156-2.918 0.53125-4.4688 0.53125-4.625 0-8.293-1.2891-11-3.875-2.6992-2.5938-4.0469-6.1016-4.0469-10.531 0-4.4375 1.3477-7.9453 4.0469-10.531 2.707-2.582 6.375-3.875 11-3.875 1.5508 0 3.0391 0.17188 4.4688 0.51562 1.4258 0.34375 2.7969 0.85938 4.1094 1.5469v5.75c-1.3242-0.90625-2.6328-1.5664-3.9219-1.9844-1.293-0.42578-2.6523-0.64062-4.0781-0.64062-2.5547 0-4.5625 0.82031-6.0312 2.4531-1.4609 1.6367-2.1875 3.8906-2.1875 6.7656 0 2.8672 0.72656 5.1172 2.1875 6.75 1.4688 1.6367 3.4766 2.4531 6.0312 2.4531 1.4258 0 2.7852-0.20703 4.0781-0.625 1.2891-0.42578 2.5977-1.0859 3.9219-1.9844z"/>
  </symbol>
  <symbol id="b" overflow="visible">
   <path d="m18.672-15.156c-0.58594-0.26953-1.1641-0.46875-1.7344-0.59375-0.57422-0.13281-1.1523-0.20312-1.7344-0.20312-1.7188 0-3.043 0.54688-3.9688 1.6406-0.91797 1.0938-1.375 2.668-1.375 4.7188v9.5938h-6.6562v-20.828h6.6562v3.4219c0.85156-1.3633 1.832-2.3594 2.9375-2.9844 1.1133-0.625 2.4453-0.9375 4-0.9375 0.21875 0 0.45703 0.011719 0.71875 0.03125 0.25781 0.011719 0.64062 0.046875 1.1406 0.10938z"/>
  </symbol>
  <symbol id="a" overflow="visible">
   <path d="m24-10.469v1.8906h-15.578c0.16406 1.5625 0.72656 2.7344 1.6875 3.5156 0.96875 0.78125 2.3203 1.1719 4.0625 1.1719 1.4062 0 2.8438-0.20703 4.3125-0.625 1.4688-0.41406 2.9766-1.0469 4.5312-1.8906v5.1406c-1.5859 0.59375-3.1641 1.043-4.7344 1.3438-1.5742 0.3125-3.1484 0.46875-4.7188 0.46875-3.7734 0-6.7031-0.95703-8.7969-2.875-2.0859-1.9141-3.125-4.6016-3.125-8.0625 0-3.4062 1.0234-6.0781 3.0781-8.0156 2.0508-1.9453 4.875-2.9219 8.4688-2.9219 3.2695 0 5.8906 0.98438 7.8594 2.9531s2.9531 4.6055 2.9531 7.9062zm-6.8438-2.2188c0-1.2578-0.37109-2.2734-1.1094-3.0469-0.74219-0.78125-1.7031-1.1719-2.8906-1.1719-1.293 0-2.3438 0.36719-3.1562 1.0938-0.80469 0.71875-1.3047 1.7617-1.5 3.125z"/>
  </symbol>
  <symbol id="h" overflow="visible">
   <path d="m12.531-9.375c-1.3867 0-2.4297 0.23438-3.125 0.70312-0.69922 0.46875-1.0469 1.168-1.0469 2.0938 0 0.84375 0.28125 1.5078 0.84375 1.9844 0.5625 0.46875 1.3438 0.70312 2.3438 0.70312 1.25 0 2.3008-0.44531 3.1562-1.3438 0.86328-0.89453 1.2969-2.0195 1.2969-3.375v-0.76562zm10.188-2.5156v11.891h-6.7188v-3.0938c-0.89844 1.2734-1.9023 2.1992-3.0156 2.7812-1.1172 0.57031-2.4766 0.85938-4.0781 0.85938-2.1562 0-3.9062-0.62891-5.25-1.8906-1.3438-1.2578-2.0156-2.8945-2.0156-4.9062 0-2.4375 0.83594-4.2266 2.5156-5.375 1.6758-1.1445 4.3164-1.7188 7.9219-1.7188h3.9219v-0.51562c0-1.0508-0.41797-1.8203-1.25-2.3125-0.83594-0.48828-2.1328-0.73438-3.8906-0.73438-1.4297 0-2.7578 0.14844-3.9844 0.4375-1.2188 0.28125-2.3594 0.70312-3.4219 1.2656v-5.0781c1.4258-0.34375 2.8594-0.60156 4.2969-0.78125 1.4375-0.17578 2.8789-0.26562 4.3281-0.26562 3.75 0 6.457 0.74219 8.125 2.2188 1.6758 1.4805 2.5156 3.8867 2.5156 7.2188z"/>
  </symbol>
  <symbol id="c" overflow="visible">
   <path d="m10.469-26.75v5.9219h6.8594v4.75h-6.8594v8.8438c0 0.96875 0.19141 1.625 0.57812 1.9688 0.38281 0.33594 1.1484 0.5 2.2969 0.5h3.4219v4.7656h-5.7188c-2.625 0-4.4922-0.54688-5.5938-1.6406-1.0938-1.1016-1.6406-2.9688-1.6406-5.5938v-8.8438h-3.3125v-4.75h3.3125v-5.9219z"/>
  </symbol>
  <symbol id="g" overflow="visible">
   <path d="m17.375-17.781v-11.156h6.6875v28.938h-6.6875v-3.0156c-0.91797 1.2305-1.9297 2.1328-3.0312 2.7031-1.1055 0.57031-2.3828 0.85938-3.8281 0.85938-2.5742 0-4.6836-1.0195-6.3281-3.0625-1.6484-2.0391-2.4688-4.6641-2.4688-7.875 0-3.2188 0.82031-5.8438 2.4688-7.875 1.6445-2.0391 3.7539-3.0625 6.3281-3.0625 1.4375 0 2.707 0.28906 3.8125 0.85938 1.1133 0.57422 2.1289 1.4688 3.0469 2.6875zm-4.3906 13.484c1.4258 0 2.5156-0.51953 3.2656-1.5625 0.75-1.0391 1.125-2.5508 1.125-4.5312 0-1.9883-0.375-3.5039-1.125-4.5469-0.75-1.0391-1.8398-1.5625-3.2656-1.5625-1.418 0-2.5 0.52344-3.25 1.5625-0.75 1.043-1.125 2.5586-1.125 4.5469 0 1.9805 0.375 3.4922 1.125 4.5312 0.75 1.043 1.832 1.5625 3.25 1.5625z"/>
  </symbol>
  <symbol id="j" overflow="visible">
   <path d="m14.281-4.2969c1.4258 0 2.5156-0.51953 3.2656-1.5625 0.75-1.0391 1.125-2.5508 1.125-4.5312 0-1.9883-0.375-3.5039-1.125-4.5469-0.75-1.0391-1.8398-1.5625-3.2656-1.5625-1.4297 0-2.5234 0.52734-3.2812 1.5781-0.76172 1.043-1.1406 2.5547-1.1406 4.5312 0 1.9688 0.37891 3.4805 1.1406 4.5312 0.75781 1.043 1.8516 1.5625 3.2812 1.5625zm-4.4219-13.484c0.91406-1.2188 1.9297-2.1133 3.0469-2.6875 1.1133-0.57031 2.3984-0.85938 3.8594-0.85938 2.5625 0 4.6641 1.0234 6.3125 3.0625 1.6562 2.0312 2.4844 4.6562 2.4844 7.875 0 3.2109-0.82812 5.8359-2.4844 7.875-1.6484 2.043-3.75 3.0625-6.3125 3.0625-1.4609 0-2.7461-0.28906-3.8594-0.85938-1.1172-0.58203-2.1328-1.4844-3.0469-2.7031v3.0156h-6.6562v-28.938h6.6562z"/>
  </symbol>
  <symbol id="f" overflow="visible">
   <path d="m0.46875-20.828h6.6562l5.5938 14.125 4.7656-14.125h6.6562l-8.7656 22.797c-0.875 2.3203-1.9023 3.9414-3.0781 4.8594-1.168 0.92578-2.7148 1.3906-4.6406 1.3906h-3.8438v-4.375h2.0781c1.1328 0 1.957-0.18359 2.4688-0.54688 0.51953-0.35547 0.92188-0.99609 1.2031-1.9219l0.1875-0.57812z"/>
  </symbol>
  <symbol id="i" overflow="visible">
   <path d="m20.344-5.0625h-11.188l-1.7656 5.0625h-7.2031l10.281-27.766h8.5469l10.281 27.766h-7.2031zm-9.4062-5.1562h7.6094l-3.7969-11.047z"/>
  </symbol>
  <symbol id="e" overflow="visible">
   <path d="m24.141-12.688v12.688h-6.6875v-9.7031c0-1.8008-0.042969-3.0391-0.125-3.7188-0.085937-0.6875-0.22656-1.1914-0.42188-1.5156-0.26172-0.4375-0.61719-0.77344-1.0625-1.0156-0.44922-0.23828-0.95312-0.35938-1.5156-0.35938-1.3984 0-2.4922 0.53906-3.2812 1.6094-0.79297 1.0742-1.1875 2.5586-1.1875 4.4531v10.25h-6.6562v-20.828h6.6562v3.0469c1-1.2188 2.0625-2.1133 3.1875-2.6875 1.1328-0.57031 2.3828-0.85938 3.75-0.85938 2.4062 0 4.2266 0.74219 5.4688 2.2188 1.25 1.4688 1.875 3.6094 1.875 6.4219z"/>
  </symbol>
  <symbol id="t" overflow="visible">
   <path d="m3.5-27.766h9.1094l6.3281 14.859 6.3594-14.859h9.0938v27.766h-6.7656v-20.312l-6.4062 14.969h-4.5312l-6.4062-14.969v20.312h-6.7812z"/>
  </symbol>
  <symbol id="s" overflow="visible">
   <path d="m3.2031-20.828h6.6562v20.828h-6.6562zm0-8.1094h6.6562v5.4219h-6.6562z"/>
  </symbol>
  <symbol id="r" overflow="visible">
   <path d="m16.906-28.938v4.3594h-3.6875c-0.9375 0-1.5938 0.17188-1.9688 0.51562s-0.5625 0.9375-0.5625 1.7812v1.4531h5.7031v4.75h-5.7031v16.078h-6.6562v-16.078h-3.3125v-4.75h3.3125v-1.4531c0-2.2695 0.62891-3.9453 1.8906-5.0312 1.2695-1.082 3.2344-1.625 5.8906-1.625z"/>
  </symbol>
  <symbol id="d" overflow="visible">
   <path d="m13.109-16.578c-1.4688 0-2.5938 0.53125-3.375 1.5938-0.77344 1.0625-1.1562 2.5938-1.1562 4.5938 0 1.9922 0.38281 3.5156 1.1562 4.5781 0.78125 1.0625 1.9062 1.5938 3.375 1.5938 1.457 0 2.5664-0.53125 3.3281-1.5938 0.76953-1.0625 1.1562-2.5859 1.1562-4.5781 0-2-0.38672-3.5312-1.1562-4.5938-0.76172-1.0625-1.8711-1.5938-3.3281-1.5938zm0-4.75c3.582 0 6.3789 0.96875 8.3906 2.9062 2.0195 1.9297 3.0312 4.6055 3.0312 8.0312 0 3.418-1.0117 6.0938-3.0312 8.0312-2.0117 1.9375-4.8086 2.9062-8.3906 2.9062-3.5938 0-6.4062-0.96875-8.4375-2.9062-2.0234-1.9375-3.0312-4.6133-3.0312-8.0312 0-3.4258 1.0078-6.1016 3.0312-8.0312 2.0312-1.9375 4.8438-2.9062 8.4375-2.9062z"/>
  </symbol>
  <symbol id="q" overflow="visible">
   <path d="m22.5-17.375c0.84375-1.2891 1.8438-2.2695 3-2.9375 1.1641-0.67578 2.4414-1.0156 3.8281-1.0156 2.3945 0 4.2188 0.74219 5.4688 2.2188 1.2578 1.4688 1.8906 3.6094 1.8906 6.4219v12.688h-6.7031v-10.859c0.007813-0.16406 0.015625-0.33203 0.015625-0.5 0.007812-0.17578 0.015625-0.42578 0.015625-0.75 0-1.4766-0.21875-2.5469-0.65625-3.2031-0.42969-0.66406-1.125-1-2.0938-1-1.2617 0-2.2344 0.52344-2.9219 1.5625-0.6875 1.043-1.0469 2.5469-1.0781 4.5156v10.234h-6.6875v-10.859c0-2.3125-0.20312-3.7969-0.60938-4.4531-0.39844-0.66406-1.1016-1-2.1094-1-1.2812 0-2.2734 0.52734-2.9688 1.5781-0.6875 1.043-1.0312 2.5391-1.0312 4.4844v10.25h-6.7031v-20.828h6.7031v3.0469c0.8125-1.1758 1.75-2.0625 2.8125-2.6562s2.2344-0.89062 3.5156-0.89062c1.4375 0 2.707 0.35156 3.8125 1.0469 1.1016 0.6875 1.9375 1.6562 2.5 2.9062z"/>
  </symbol>
  <symbol id="p" overflow="visible">
   <path d="m24.141-12.688v12.688h-6.6875v-9.6719c0-1.8203-0.042969-3.0703-0.125-3.75-0.085937-0.6875-0.22656-1.1914-0.42188-1.5156-0.26172-0.4375-0.61719-0.77344-1.0625-1.0156-0.44922-0.23828-0.95312-0.35938-1.5156-0.35938-1.3984 0-2.4922 0.53906-3.2812 1.6094-0.79297 1.0742-1.1875 2.5586-1.1875 4.4531v10.25h-6.6562v-28.938h6.6562v11.156c1-1.2188 2.0625-2.1133 3.1875-2.6875 1.1328-0.57031 2.3828-0.85938 3.75-0.85938 2.4062 0 4.2266 0.74219 5.4688 2.2188 1.25 1.4688 1.875 3.6094 1.875 6.4219z"/>
  </symbol>
  <symbol id="o" overflow="visible">
   <path d="m3.5-27.766h8l10.094 19.047v-19.047h6.7969v27.766h-8l-10.109-19.047v19.047h-6.7812z"/>
  </symbol>
  <symbol id="n" overflow="visible">
   <path d="m2.9688-8.1094v-12.719h6.7031v2.0781c0 1.125-0.007813 2.543-0.015625 4.25-0.011719 1.7109-0.015625 2.8516-0.015625 3.4219 0 1.668 0.039063 2.8711 0.125 3.6094 0.082031 0.74219 0.23438 1.2773 0.45312 1.6094 0.26953 0.4375 0.625 0.77734 1.0625 1.0156 0.4375 0.23047 0.94141 0.34375 1.5156 0.34375 1.3828 0 2.4727-0.53125 3.2656-1.5938 0.80078-1.0703 1.2031-2.5547 1.2031-4.4531v-10.281h6.6562v20.828h-6.6562v-3.0156c-1.0117 1.2188-2.0781 2.1211-3.2031 2.7031-1.1172 0.57031-2.3516 0.85938-3.7031 0.85938-2.4062 0-4.2422-0.73828-5.5-2.2188-1.2617-1.4766-1.8906-3.625-1.8906-6.4375z"/>
  </symbol>
  <symbol id="m" overflow="visible">
   <path d="m3.5-27.766h11.875c3.5391 0 6.2539 0.78906 8.1406 2.3594 1.8945 1.5625 2.8438 3.793 2.8438 6.6875 0 2.918-0.94922 5.1641-2.8438 6.7344-1.8867 1.5625-4.6016 2.3438-8.1406 2.3438h-4.7188v9.6406h-7.1562zm7.1562 5.1875v7.75h3.9688c1.3828 0 2.4531-0.33594 3.2031-1.0156 0.75781-0.67578 1.1406-1.6328 1.1406-2.875 0-1.2383-0.38281-2.1914-1.1406-2.8594-0.75-0.66406-1.8203-1-3.2031-1z"/>
  </symbol>
  <symbol id="l" overflow="visible">
   <path d="m3.2031-20.828h6.6562v20.453c0 2.7891-0.67188 4.9219-2.0156 6.3906-1.3359 1.4688-3.2734 2.2031-5.8125 2.2031h-3.2969v-4.375h1.1562c1.2578 0 2.125-0.28906 2.5938-0.85938 0.47656-0.5625 0.71875-1.6836 0.71875-3.3594zm0-8.1094h6.6562v5.4219h-6.6562z"/>
  </symbol>
  <symbol id="k" overflow="visible">
   <path d="m20.031-20.188v5.4375c-0.90625-0.625-1.8203-1.082-2.7344-1.375-0.90625-0.30078-1.8516-0.45312-2.8281-0.45312-1.8555 0-3.3047 0.54688-4.3438 1.6406-1.0312 1.0859-1.5469 2.6016-1.5469 4.5469 0 1.9375 0.51562 3.4531 1.5469 4.5469 1.0391 1.0859 2.4883 1.625 4.3438 1.625 1.0391 0 2.0312-0.15625 2.9688-0.46875s1.8008-0.76953 2.5938-1.375v5.4531c-1.043 0.38672-2.1016 0.67188-3.1719 0.85938-1.0742 0.19531-2.1484 0.29688-3.2188 0.29688-3.7617 0-6.7031-0.96094-8.8281-2.8906-2.1172-1.9375-3.1719-4.6172-3.1719-8.0469 0-3.4375 1.0547-6.1172 3.1719-8.0469 2.125-1.9258 5.0664-2.8906 8.8281-2.8906 1.082 0 2.1562 0.09375 3.2188 0.28125s2.1172 0.47656 3.1719 0.85938z"/>
  </symbol>
 </defs>
 <g>
  <path d="m478.25 221.61v303.27c0 9.2773-3.6836 18.18-10.238 24.75-6.5547 6.5703-15.449 10.27-24.73 10.289h-186.64c-9.2812-0.019531-18.172-3.7188-24.73-10.289-6.5547-6.5703-10.234-15.473-10.234-24.75v-34.965h34.965v-0.003907c6.4375 0 11.656-5.2188 11.656-11.656s-5.2188-11.656-11.656-11.656h-34.965v-46.699h34.965v0.003906c6.4375 0 11.656-5.2188 11.656-11.656s-5.2188-11.656-11.656-11.656h-34.965v-46.621h34.965c6.0938-0.49219 10.789-5.582 10.789-11.695 0-6.1133-4.6953-11.199-10.789-11.691h-34.965v-46.625h34.965c6.4375 0 11.656-5.2188 11.656-11.656 0-6.4336-5.2188-11.652-11.656-11.652h-34.965v-34.965c0-10.816 6.3242-24.91 19.352-42.586h217.88c12.949 17.672 19.348 31.688 19.348 42.508z"/>
  <path d="m393.69 89.129h-87.453c3.4531-7.7578 5.6602-16.008 6.5508-24.453 1.3281-9.8477 2.0664-19.77 2.2109-29.711 0-12.492 6.6641-24.035 17.484-30.281 10.816-6.2461 24.145-6.2461 34.965 0 10.82 6.2461 17.484 17.789 17.484 30.281 0.14453 9.9414 0.90625 19.867 2.2852 29.711 0.875 8.4375 3.0586 16.688 6.4727 24.453z"/>
  <path d="m450.82 128.29v42.508h-201.73v-42.508c0-8.1914 3.25-16.047 9.0352-21.844 5.7812-5.8008 13.629-9.0664 21.82-9.0859h140.09c8.1758 0.039063 16.004 3.3164 21.773 9.1133 5.7656 5.793 9.0039 13.637 9.0039 21.816z"/>
  <use x="221.675781" y="674.269531" xlink:href="#u"/>
  <use x="249.628906" y="674.269531" xlink:href="#b"/>
  <use x="268.414063" y="674.269531" xlink:href="#a"/>
  <use x="294.246094" y="674.269531" xlink:href="#h"/>
  <use x="319.949219" y="674.269531" xlink:href="#c"/>
  <use x="338.15625" y="674.269531" xlink:href="#a"/>
  <use x="363.992188" y="674.269531" xlink:href="#g"/>
  <use x="404.519531" y="674.269531" xlink:href="#j"/>
  <use x="431.785156" y="674.269531" xlink:href="#f"/>
  <use x="469.875" y="674.269531" xlink:href="#i"/>
  <use x="499.351563" y="674.269531" xlink:href="#e"/>
  <use x="526.46875" y="674.269531" xlink:href="#g"/>
  <use x="553.734375" y="674.269531" xlink:href="#f"/>
  <use x="591.824219" y="674.269531" xlink:href="#t"/>
  <use x="629.730469" y="674.269531" xlink:href="#s"/>
  <use x="642.785156" y="674.269531" xlink:href="#b"/>
  <use x="661.570312" y="674.269531" xlink:href="#h"/>
  <use x="687.273438" y="674.269531" xlink:href="#e"/>
  <use x="221.675781" y="712.359375" xlink:href="#r"/>
  <use x="238.246094" y="712.359375" xlink:href="#b"/>
  <use x="257.03125" y="712.359375" xlink:href="#d"/>
  <use x="283.199219" y="712.359375" xlink:href="#q"/>
  <use x="336.148438" y="712.359375" xlink:href="#c"/>
  <use x="354.359375" y="712.359375" xlink:href="#p"/>
  <use x="381.472656" y="712.359375" xlink:href="#a"/>
  <use x="420.570312" y="712.359375" xlink:href="#o"/>
  <use x="452.445312" y="712.359375" xlink:href="#d"/>
  <use x="478.613281" y="712.359375" xlink:href="#n"/>
  <use x="505.730469" y="712.359375" xlink:href="#e"/>
  <use x="546.109375" y="712.359375" xlink:href="#m"/>
  <use x="574.027344" y="712.359375" xlink:href="#b"/>
  <use x="592.8125" y="712.359375" xlink:href="#d"/>
  <use x="618.980469" y="712.359375" xlink:href="#l"/>
  <use x="632.035156" y="712.359375" xlink:href="#a"/>
  <use x="657.867188" y="712.359375" xlink:href="#k"/>
  <use x="680.449219" y="712.359375" xlink:href="#c"/>
 </g>
</svg>
