<?xml version="1.0" encoding="UTF-8"?>
<svg width="700pt" height="700pt" version="1.1" viewBox="0 0 700 700" xmlns="http://www.w3.org/2000/svg">
 <path d="m577.5 140c-4.6406 0-9.0938 1.8438-12.375 5.125s-5.125 7.7344-5.125 12.375v15.051c-16.219 29.312-42.41 51.836-73.816 63.484-31.41 11.648-65.957 11.648-97.367 0-31.406-11.648-57.598-34.172-73.816-63.484v-15.051c0.003906-1.918-0.35156-3.8164-1.0508-5.6016-0.70312-1.5508-1.5859-3.0195-2.625-4.375l-87.5-105c-3.3242-4.0117-8.2617-6.332-13.473-6.332-5.2109 0-10.152 2.3203-13.477 6.332l-87.5 105c-1.0391 1.3555-1.918 2.8242-2.625 4.375-0.94141 1.7383-1.5352 3.6406-1.75 5.6016v350c0 6.2539 3.3359 12.031 8.75 15.156s12.086 3.125 17.5 0 8.75-8.9023 8.75-15.156v-17.5h140v17.5c0 6.2539 3.3359 12.031 8.75 15.156s12.086 3.125 17.5 0 8.75-8.9023 8.75-15.156v-175h105v55.648c-15.695 5.5508-27.828 18.215-32.699 34.133-4.875 15.918-1.9102 33.203 7.9922 46.586 9.8984 13.387 25.559 21.281 42.207 21.281s32.309-7.8945 42.207-21.281c9.9023-13.383 12.867-30.668 7.9922-46.586-4.8711-15.918-17.004-28.582-32.699-34.133v-55.648h105v175c0 6.2539 3.3359 12.031 8.75 15.156s12.086 3.125 17.5 0 8.75-8.9023 8.75-15.156v-350c0-4.6406-1.8438-9.0938-5.125-12.375s-7.7344-5.125-12.375-5.125zm-140 315c-4.6406 0-9.0938-1.8438-12.375-5.125s-5.125-7.7344-5.125-12.375 1.8438-9.0938 5.125-12.375 7.7344-5.125 12.375-5.125 9.0938 1.8438 12.375 5.125 5.125 7.7344 5.125 12.375-1.8438 9.0938-5.125 12.375-7.7344 5.125-12.375 5.125zm-157.5-157.5h-17.5v-17.5c0-18.758-10.008-36.09-26.25-45.465-16.242-9.3789-36.258-9.3789-52.5 0-16.242 9.375-26.25 26.707-26.25 45.465v17.5h-17.5v-122.5h140zm-52.5 0h-35v-17.5c0-6.2539 3.3359-12.031 8.75-15.156s12.086-3.125 17.5 0 8.75 8.9023 8.75 15.156zm-87.5 87.5h140v17.5h-140zm140-35h-140v-17.5h140zm-70-270.2 50.227 60.199h-100.45zm-70 357.7h140v17.5h-140zm175-140v-68.074c32.711 32.062 76.691 50.023 122.5 50.023s89.789-17.961 122.5-50.023v68.074z"/>
</svg>
