<?xml version="1.0" encoding="UTF-8"?>
<svg width="700pt" height="700pt" version="1.1" viewBox="0 0 700 700" xmlns="http://www.w3.org/2000/svg">
 <path d="m350 35c-29.461 0-54.777 6.7422-76.309 17.566 0 0-0.98047-0.042968-2.4258-0.050781-28.871 0-52.484 23.609-52.52 52.496-0.003906 1.0156-0.015625 1.3359-0.015625 1.3359-5.3164 11.344-8.7656 24.293-8.7656 38.094v149.25c18.48-8.6211 38.93-13.551 60.582-13.551h158.91c21.617 0 42.055 4.9062 60.52 13.496v-149.19c0-30.965-16.281-58.707-41.719-78.223-25.438-19.52-60.098-31.219-98.254-31.219zm-47.598 40.59c4.9102-0.20312 9.0273 3.6836 9.1094 8.6055 0.14844 4.7148 1.1094 9.2227 2.8359 13.512 1.7305 4.293 4.2227 8.3594 7.5547 12.281 3.3281 3.9219 7.5195 7.6445 12.477 11.051 4.957 3.4062 10.738 6.5156 17.246 9.1875 26.027 10.684 60.188 12.824 89.52 5.3555 11.727-3.7734 16.508 14.434 4.4453 16.918 0.38672 3.2227 0.65625 6.4492 0.66797 9.7148v0.035156c0 55.379-43.184 100.44-96.254 100.44-51.824 0-94.105-43.008-96.066-96.594-1.3516 0.089844-2.6875 0.26172-4.0508 0.27344-11.676 0.089844-11.812-17.441-0.13672-17.531 15.977-0.14062 31.039-7.5156 40.895-20.102 4.6914-5.9922 7.9023-12.953 9.7578-20.016-0.75781-1.5-1.6445-2.9453-2.2734-4.4961-2.4766-6.1562-3.8555-12.691-4.0664-19.449-0.24219-4.8477 3.5-8.9648 8.3398-9.1875zm10.441 50.121c-2.2617 4.8281-5.0508 9.4922-8.4414 13.82-9.1719 11.711-21.773 19.965-35.77 24 0.66016 46.43 36.715 83.715 81.367 83.715 45.059 0 81.438-37.949 81.453-84.961-0.054687-2.7891-0.25391-5.0156-0.51172-6.8242-29.191 4.625-60.176 1.5742-85.984-9.0195-7.5352-3.0938-14.379-6.7266-20.473-10.914-4.3242-2.9688-8.1211-6.3086-11.641-9.8164zm-42.297 171.98c-72.344 0-130.54 60.719-130.54 135.39v91.922h419.98v-91.926c0-74.668-58.195-135.39-130.54-135.39l-8.4414 0.003906 24.336 48.684c1.832 3.6992 0.83203 8.1719-2.3945 10.742l-87.449 70.078c-0.12891 0.097656-0.25781 0.18359-0.39453 0.27344-0.47656 0.33984-0.98438 0.63281-1.5195 0.87109l-0.015625 0.015624c-0.23438 0.10156-0.47656 0.19141-0.71875 0.27344-0.027344 0.011719-0.054688 0.023438-0.085938 0.03125-0.054687 0.015625-0.11328 0.054688-0.17188 0.070312-0.21875 0.066407-0.44141 0.12109-0.66797 0.17188-0.26172 0.054687-0.52344 0.10156-0.78516 0.13672-0.023437 0.003906-0.046875 0.011719-0.066406 0.015625h-0.10156c-0.25391 0.03125-0.51172 0.054688-0.76953 0.070313-0.24609 0.003906-0.48828 0-0.73438-0.015625-0.25-0.015625-0.50391-0.046875-0.75391-0.085938-0.28906-0.042969-0.57422-0.11719-0.85547-0.1875-0.28516-0.074219-0.5625-0.15625-0.83594-0.25781-0.27344-0.097657-0.54297-0.21484-0.80469-0.34375-0.26172-0.12109-0.51953-0.26172-0.76953-0.41016-0.25-0.15234-0.5-0.31641-0.73438-0.49609-0.070312-0.042969-0.13672-0.089844-0.20312-0.13672l-87.453-70.078c-3.2266-2.5703-4.2227-7.043-2.3945-10.742l24.336-48.68zm27.996 0c-8.3125 16.746-16.711 33.449-25.074 50.168l60.586 48.492c-9.375-32.887-18.809-65.762-28.148-98.66zm25.535 0 25.926 90.828 25.926-90.828zm70.035 0c-9.3828 32.887-18.766 65.777-28.152 98.664l60.52-48.496c-8.3516-16.723-16.668-33.465-25.055-50.168zm-44.113 148.92c4.832 0 8.75 3.9219 8.75 8.7578 0 4.8359-3.918 8.7578-8.75 8.7578s-8.75-3.9219-8.75-8.7578c0-4.8359 3.918-8.7578 8.75-8.7578zm70.004 0h96.254v17.516h-96.254zm-70.004 35.031c4.832 0 8.75 3.9219 8.75 8.7578 0 4.8359-3.918 8.7578-8.75 8.7578s-8.75-3.9219-8.75-8.7578c0-4.8359 3.918-8.7578 8.75-8.7578z"/>
</svg>
