<svg width="194" height="181" viewBox="0 0 194 181" fill="none" xmlns="http://www.w3.org/2000/svg">
<path d="M70.9396 67.998C70.6375 68.336 70.3426 68.6812 70.0549 69.0337C69.3788 69.6738 68.7171 70.3283 68.0698 71.0044C66.6672 72.4645 65.3798 74.0253 64.157 75.6364C61.7763 78.7579 59.8344 82.2032 58.439 85.8713C57.7557 87.6623 57.2738 89.5323 56.9358 91.4168C56.5761 93.4594 56.3891 95.5309 56.4395 97.6095C56.4683 98.6956 56.5833 99.7744 56.7344 100.853C56.8638 101.839 57.058 102.81 57.3241 103.773C57.6047 104.78 57.9931 105.751 58.403 106.708C58.7842 107.607 59.2158 108.477 59.6977 109.326C60.6759 111.045 61.9058 112.642 63.2508 114.088C64.603 115.54 66.135 116.799 67.7101 117.993C68.1273 118.31 68.5517 118.619 68.9832 118.914C69.573 119.539 70.1844 120.151 70.8173 120.741C72.2414 122.064 73.7806 123.272 75.3414 124.43C76.8878 125.574 78.4989 126.638 80.1604 127.595C81.8937 128.595 83.7063 129.422 85.5547 130.184C87.3385 130.925 89.1798 131.537 91.0714 131.939C93.0637 132.371 95.1136 132.594 97.1562 132.68C99.127 132.766 101.098 132.673 103.047 132.421C107.032 131.903 110.944 130.832 114.713 129.451C116.59 128.76 118.439 127.962 120.23 127.063C121.927 126.207 123.567 125.222 125.157 124.179C126.825 123.078 128.422 121.884 129.99 120.647C131.479 119.468 132.917 118.209 134.298 116.9C137.139 114.203 139.714 111.225 141.994 108.039C144.296 104.824 146.173 101.27 147.446 97.5304C148.108 95.574 148.489 93.5529 148.741 91.5175C148.985 89.5899 148.985 87.6551 148.748 85.7275C148.496 83.6704 148.058 81.6565 147.432 79.6858C146.828 77.7726 146.051 75.9097 145.159 74.1116C144.332 72.4357 143.354 70.8318 142.268 69.307C141.11 67.6815 139.844 66.1207 138.463 64.6822C137.082 63.2437 135.55 61.985 133.953 60.7983C132.457 59.6906 130.853 58.7124 129.17 57.9141C127.343 57.051 125.43 56.3964 123.474 55.9074C121.474 55.4039 119.431 55.1018 117.389 54.8357C115.195 54.548 112.994 54.3825 110.786 54.3394C110.743 54.2531 110.685 54.1668 110.613 54.102C110.045 53.5698 109.463 53.0303 108.837 52.57C108.11 52.0378 107.262 51.8076 106.377 51.6422C105.528 51.484 104.665 51.4264 103.802 51.4264C102.838 51.4264 101.867 51.5055 100.911 51.599C98.9544 51.8076 97.0484 52.2464 95.164 52.829C93.2795 53.4116 91.4166 54.102 89.5969 54.8573C86.0222 56.3389 82.613 58.2521 79.4483 60.4746C76.3339 62.6395 73.4425 65.1641 70.9396 67.998ZM142.145 93.2796C141.822 95.4446 141.239 97.5448 140.412 99.5803C140.167 100.141 139.908 100.695 139.628 101.235C139.793 100.177 139.909 99.1127 139.959 98.0483C139.988 97.4944 139.988 96.9478 139.973 96.394C140.052 96.0415 140.124 95.6891 140.189 95.3295C140.534 93.5242 140.757 91.6973 140.894 89.8632C140.944 89.633 140.987 89.4029 141.031 89.1727C141.297 87.7414 141.433 86.2885 141.383 84.8356C141.757 85.8713 142.03 86.9286 142.203 88.0219C142.404 89.7769 142.354 91.5318 142.145 93.2796ZM137.794 71.2346C139.556 73.565 141.038 76.0751 142.203 78.7579C142.21 78.7795 142.217 78.7939 142.225 78.8155C141.484 77.8013 140.642 76.8591 139.7 76.0248C139.283 74.7014 138.751 73.4139 138.161 72.1624C137.952 71.7165 137.722 71.2777 137.485 70.8534C137.593 70.9828 137.693 71.1051 137.794 71.2346ZM81.7931 104.162C81.6636 103.989 81.5342 103.809 81.4119 103.63C81.7284 102.162 82.1671 100.731 82.7353 99.3357C82.8216 99.1415 82.9079 98.9545 82.9942 98.7603C83.0086 98.8466 83.0158 98.9329 83.0302 99.0192C83.1525 99.8752 83.3323 100.724 83.5696 101.558C83.8501 102.565 84.2457 103.529 84.6557 104.493C85.2958 105.982 86.1517 107.348 87.1515 108.614C86.2668 108.125 85.4109 107.578 84.5982 106.974C83.5481 106.133 82.6202 105.198 81.7931 104.162ZM86.9645 93.071C86.9717 93.0279 86.9717 92.9775 86.9789 92.9344C87.0364 92.5388 87.1011 92.1504 87.1802 91.762C87.3241 91.5678 87.468 91.3736 87.6118 91.1866C87.6334 91.1578 87.655 91.1291 87.6765 91.1075C87.4104 91.7476 87.1731 92.4093 86.9645 93.071ZM97.5662 116.519C95.4948 116.763 93.4018 116.763 91.3303 116.519C91.1289 116.49 90.9203 116.454 90.7189 116.411C90.5032 116.303 90.2946 116.195 90.086 116.087C88.9137 115.483 87.7844 114.814 86.7271 114.03C85.8496 113.318 85.0729 112.52 84.368 111.635C84.2313 111.448 84.0947 111.268 83.9652 111.074C85.4325 112.016 87.022 112.771 88.6475 113.404C90.4241 114.102 92.3013 114.533 94.1786 114.857C94.4519 114.907 94.7252 114.951 94.9985 114.994C95.5235 115.267 96.063 115.519 96.6025 115.756C97.1347 115.986 97.6741 116.209 98.2136 116.411C97.9978 116.454 97.782 116.49 97.5662 116.519ZM92.2941 106.248C92.3085 106.356 92.3229 106.456 92.3373 106.564C91.8554 105.823 91.431 105.054 91.0714 104.248C90.6614 103.22 90.3809 102.155 90.2083 101.062C90.0573 99.681 90.0573 98.2928 90.2155 96.9118C90.4529 95.4014 90.87 93.9269 91.4382 92.51C91.7978 91.6973 92.2078 90.9061 92.6681 90.1437C92.402 90.9564 92.1718 91.7836 91.9776 92.6107C91.7187 93.7112 91.5461 94.8188 91.4022 95.9408C90.9491 99.3717 91.1937 102.954 92.2941 106.248ZM101.105 111.843C100.278 111.139 99.5154 110.355 98.8249 109.506C98.0697 108.485 97.4439 107.384 96.9261 106.219C96.6456 105.521 96.4082 104.816 96.2068 104.097C96.1853 103.025 96.2428 101.954 96.3723 100.889C96.7535 98.3863 97.4943 95.9408 98.4509 93.6033C99.6664 90.791 101.234 88.1586 103.083 85.7131C103.838 84.7565 104.636 83.843 105.492 82.9799C105.593 82.8792 105.701 82.7714 105.802 82.6707C105.946 82.6707 106.097 82.6779 106.24 82.6779C106.55 82.9799 106.852 83.2964 107.139 83.6273C106.204 84.1955 105.334 84.8716 104.521 85.5908C103.874 86.1662 103.306 86.8135 102.781 87.4968C102.141 88.324 101.558 89.1799 101.033 90.079C100.033 91.8123 99.3068 93.7112 98.8321 95.6531C98.5948 96.6313 98.4509 97.6383 98.3502 98.6452C98.2495 99.6162 98.2495 100.594 98.3502 101.565C98.4509 102.536 98.6164 103.5 98.8969 104.435C99.1846 105.406 99.6233 106.348 100.163 107.211C101.206 108.873 102.687 110.225 104.471 111.052C104.939 111.268 105.428 111.462 105.924 111.613C104.327 111.8 102.716 111.872 101.105 111.843ZM97.6885 60.489C98.7674 60.2804 99.8606 60.1006 100.947 59.9495C101.781 59.8417 102.623 59.7481 103.464 59.669C103.299 59.7266 103.133 59.7841 102.975 59.8488C102.594 59.9927 102.213 60.1365 101.831 60.2876C101.565 60.2876 101.299 60.2948 101.04 60.2948C99.911 60.3164 98.7961 60.3883 97.6885 60.489ZM111.124 97.5591C110.98 98.4654 110.764 99.3645 110.455 100.228C110.39 99.9615 110.34 99.6953 110.29 99.4292C110.268 99.2206 110.247 99.0048 110.239 98.7963C110.513 98.2209 110.822 97.6742 111.167 97.142C111.153 97.2858 111.139 97.4225 111.124 97.5591ZM119.985 93.258C119.805 94.0492 119.604 94.8332 119.381 95.61C118.978 97.0125 118.482 98.4079 117.928 99.7601C117.223 101.378 116.317 102.91 115.274 104.327C115.008 104.658 114.735 104.967 114.447 105.27C114.404 105.255 114.368 105.241 114.325 105.226C113.857 105.003 113.411 104.744 112.987 104.442C112.937 104.399 112.886 104.356 112.836 104.313C113.145 103.953 113.419 103.558 113.656 103.155C113.922 102.709 114.109 102.206 114.303 101.731C114.648 100.882 114.864 99.9686 115.03 99.0696C115.368 97.2283 115.411 95.3583 115.238 93.4954C115.454 93.3803 115.67 93.2796 115.893 93.1789C116.497 92.9488 117.108 92.7905 117.741 92.6826C118.345 92.6251 118.942 92.6107 119.539 92.6683C119.719 92.7042 119.906 92.7474 120.079 92.7905C120.079 92.8049 120.079 92.8193 120.086 92.8337C120.05 92.9703 120.021 93.1142 119.985 93.258ZM114.202 88.2808C114.274 88.2161 114.346 88.1586 114.418 88.101C114.785 87.8349 115.174 87.5975 115.576 87.3961C115.929 87.2667 116.281 87.1732 116.648 87.1084C116.777 87.0941 116.907 87.0869 117.036 87.0869C117.497 87.54 117.928 88.0147 118.338 88.5182C118.389 88.5829 118.432 88.6476 118.482 88.7124C117.691 88.7124 116.893 88.8275 116.116 88.9641C115.576 89.0576 115.051 89.223 114.533 89.4172C114.44 89.0288 114.325 88.6548 114.202 88.2808ZM129.846 78.7723C129.724 78.5997 129.594 78.4343 129.472 78.2689C129.35 78.0099 129.228 77.7438 129.091 77.4921C129.163 77.5208 129.235 77.5424 129.307 77.5712C129.544 77.9884 129.767 78.4199 129.976 78.8515C129.925 78.8227 129.882 78.7939 129.846 78.7723ZM117.036 62.5892C119.316 62.9272 121.553 63.5314 123.689 64.4017C125.502 65.2001 127.199 66.207 128.782 67.3938C129.954 68.3288 131.055 69.3573 132.026 70.4938C132.018 70.4866 132.011 70.4866 131.997 70.4794C131.342 70.1269 130.659 69.8105 129.968 69.53C129.264 69.0265 128.544 68.5518 127.804 68.113C126.624 67.1924 125.38 66.3437 124.078 65.6028C122.337 64.6031 120.46 63.8191 118.576 63.1286C118.072 62.9344 117.554 62.7546 117.036 62.5892ZM111.628 78.3983C113.052 78.3983 114.476 78.499 115.9 78.6716C118.554 79.06 121.158 79.7074 123.646 80.7143C124.171 80.9445 124.689 81.1818 125.2 81.4336C125.574 82.4693 125.818 83.541 125.991 84.627C126.099 85.5621 126.164 86.4971 126.171 87.4393C126.178 88.4462 126.099 89.446 125.977 90.4458C125.962 90.5537 125.941 90.6687 125.926 90.7766C125.66 89.9782 125.301 89.2087 124.898 88.4822C124.445 87.6623 123.869 86.9071 123.243 86.2166C122.567 85.4614 121.74 84.8356 120.913 84.2602C120.208 83.7711 119.453 83.3683 118.662 83.0303C118.561 82.9871 118.468 82.944 118.367 82.908C117.367 82.1528 116.288 81.5127 115.152 80.966C113.57 80.2108 111.915 79.6139 110.218 79.2183C110.671 78.9234 111.146 78.6501 111.628 78.3983ZM109.333 86.9574C109.412 87.1084 109.484 87.2667 109.556 87.4177C109.463 87.54 109.362 87.6695 109.268 87.7989C108.751 88.5038 108.341 89.2806 107.967 90.0718C107.513 91.0284 107.125 92.0209 106.83 93.0351C106.542 94.0133 106.391 95.0058 106.255 96.0128C106.183 96.5306 106.147 97.0485 106.14 97.5663C105.974 97.9763 105.823 98.3863 105.708 98.8035C105.392 99.9111 105.413 101.062 105.571 102.184C105.636 102.644 105.751 103.09 105.91 103.529C106.125 104.126 106.327 104.788 106.809 105.241C107.24 105.658 107.693 105.895 108.269 106.068C108.499 106.14 108.736 106.176 108.974 106.19C109.182 106.435 109.412 106.672 109.642 106.895C109.973 107.211 110.326 107.514 110.7 107.787C110.34 107.902 109.973 107.988 109.599 108.053C109.017 108.111 108.441 108.111 107.866 108.06C107.384 107.974 106.916 107.844 106.456 107.672C105.953 107.434 105.478 107.161 105.032 106.837C104.636 106.507 104.284 106.14 103.953 105.744C103.586 105.234 103.27 104.694 102.997 104.126C102.702 103.342 102.5 102.536 102.371 101.709C102.249 100.573 102.27 99.4364 102.4 98.3C102.637 96.7752 103.04 95.2863 103.615 93.855C104.219 92.4956 104.975 91.2082 105.859 90.0142C106.535 89.1799 107.29 88.4319 108.125 87.7558C108.513 87.4753 108.916 87.2019 109.333 86.9574ZM90.6039 56.3821C92.179 55.7275 93.7758 55.1306 95.3941 54.5983C97.0771 54.0445 98.8034 53.6057 100.558 53.354C102.241 53.1454 103.939 53.0375 105.629 53.2317C106.219 53.318 106.809 53.4403 107.37 53.6489C107.571 53.7496 107.751 53.8647 107.931 53.9941C108.067 54.102 108.197 54.2099 108.333 54.325C107.391 54.3394 106.449 54.3753 105.507 54.4329C103.378 54.5623 101.256 54.8069 99.1486 55.109C97.1778 55.3895 95.2287 55.7779 93.3011 56.2598C90.6686 56.9143 88.0937 57.799 85.5979 58.8635C87.209 57.95 88.8849 57.1157 90.6039 56.3821ZM85.7993 70.9253C85.5044 71.0979 85.2167 71.2777 84.929 71.4647C83.3035 72.5077 81.7787 73.7304 80.3474 75.0322C77.5279 77.5928 75.14 80.6496 73.27 83.9653C72.2918 85.6987 71.4718 87.5256 70.7741 89.3885C70.098 91.1794 69.5802 93.0351 69.2206 94.9195C68.4798 98.8322 68.3863 102.946 69.2709 106.845C68.3215 105.528 67.5231 104.119 66.8614 102.637C66.2069 101.012 65.7178 99.3285 65.4445 97.5951C65.2575 95.8977 65.3078 94.2003 65.502 92.5028C65.8473 90.2012 66.4515 87.95 67.3289 85.785C68.0985 84.0301 69.012 82.3398 70.0693 80.7503C71.3855 79.2111 72.8312 77.7941 74.4207 76.5427C76.708 74.8236 79.2326 73.4427 81.8578 72.3063C83.1525 71.774 84.4687 71.3137 85.7993 70.9253Z" fill="#FFD34E"/>
<path d="M106.55 40.3427C107.147 40.3427 107.722 40.1054 108.139 39.6882C108.585 39.2423 108.751 38.7101 108.794 38.0987C109.081 34.301 109.333 30.4962 109.578 26.6914C109.736 24.2459 109.837 21.7933 109.959 19.3478C110.002 18.4775 110.052 17.6144 110.095 16.7441C110.11 16.4708 110.117 16.1975 110.131 15.9242C110.146 15.5214 110.189 15.1114 110.16 14.7087C110.11 14.0613 109.937 13.5075 109.47 13.04C109.031 12.6013 108.42 12.3495 107.801 12.3495C106.506 12.3495 105.442 13.4212 105.435 14.7158C105.377 16.1831 105.363 17.6576 105.32 19.1249C105.284 20.3979 105.233 21.671 105.19 22.9441C105.147 24.1596 105.118 25.3751 105.046 26.5907C104.939 28.3385 104.838 30.0934 104.73 31.8412C104.6 33.9342 104.457 36.0201 104.306 38.1059C104.262 38.6813 104.572 39.2998 104.96 39.6954C105.384 40.1054 105.96 40.3427 106.55 40.3427Z" fill="#FFD34E"/>
<path d="M138.909 49.9016C140.146 50.628 141.779 50.1893 142.505 48.9594C143.663 46.9958 144.807 45.0179 145.994 43.0687C146.993 41.4216 147.986 39.7817 148.986 38.1347C149.489 37.3003 149.978 36.4516 150.51 35.6389C151.467 34.1644 152.424 32.6971 153.38 31.2227C153.797 30.5753 154.229 29.9352 154.653 29.2951C154.797 29.0793 154.941 28.8635 155.078 28.6549C155.329 28.4464 155.545 28.2018 155.718 27.9141C156.236 27.1805 156.732 26.4253 157.199 25.6629C158.134 24.138 157.235 22.1098 155.56 21.6351C155.301 21.5631 155.035 21.5272 154.761 21.5272C154.2 21.5272 153.632 21.6854 153.179 22.0234C152.862 22.2608 152.661 22.3831 152.438 22.6636C152.215 22.9513 152.021 23.1814 151.848 23.4835C151.625 23.8719 151.46 24.2819 151.222 24.6559C150.748 25.3967 150.273 26.1376 149.798 26.8784C149.144 27.8997 148.497 28.9211 147.842 29.9496C147.137 31.0572 146.403 32.1577 145.72 33.2869C144.951 34.5672 144.181 35.8403 143.419 37.1205C141.577 40.1773 139.758 43.2413 137.952 46.3197C137.24 47.5353 137.679 49.1752 138.909 49.9016Z" fill="#FFD34E"/>
<path d="M162.414 69.2278C164.449 68.5877 166.492 67.9476 168.535 67.3434C170.362 66.804 172.196 66.2645 174.023 65.7251C174.965 65.4446 175.907 65.2072 176.864 64.9771C177.813 64.7469 178.77 64.5167 179.719 64.2794C180.129 64.1787 180.532 64.0708 180.942 63.9845C182.517 63.6752 184.092 63.3588 185.682 63.0926C187.084 62.8553 188.487 62.6179 189.896 62.3878C190.033 62.3806 190.177 62.3806 190.321 62.3878C191.364 62.4453 192.335 61.6182 192.608 60.6472C192.946 59.4245 192.205 58.0507 190.954 57.7342C190.637 57.6551 190.27 57.5688 189.954 57.5688C189.947 57.5688 189.94 57.5688 189.932 57.5688C189.709 57.5688 189.486 57.5832 189.263 57.6048C188.947 57.6335 188.631 57.6911 188.314 57.7414C187.998 57.7918 187.681 57.8349 187.365 57.8996C186.739 58.0219 186.113 58.1442 185.487 58.2808C184.027 58.5829 182.567 58.8994 181.114 59.2231C179.877 59.4964 178.647 59.8057 177.417 60.1221C176.202 60.4314 174.958 60.7047 173.756 61.0643C171.901 61.6182 170.038 62.1792 168.182 62.7402C165.852 63.4379 163.536 64.1643 161.22 64.898C160.652 65.0778 160.177 65.4158 159.875 65.9337C159.573 66.4515 159.487 67.0845 159.652 67.6671C159.961 68.8035 161.249 69.5947 162.414 69.2278Z" fill="#FFD34E"/>
<path d="M191.062 90.23C190.436 90.0358 189.753 89.9351 189.105 89.8632C188.228 89.7625 187.336 89.7121 186.451 89.6905C185.833 89.6762 185.214 89.669 184.588 89.6546C183.423 89.633 182.251 89.6186 181.086 89.5827C177.238 89.4532 173.39 89.3165 169.542 89.1583C169.506 89.1583 169.47 89.1583 169.434 89.1583C167.873 89.1583 166.593 90.5896 166.593 92.1072C166.593 92.884 166.909 93.6392 167.456 94.193C168.024 94.7613 168.751 95.0202 169.542 95.0562C173.325 95.2216 177.108 95.3582 180.884 95.4877C181.956 95.5237 183.028 95.5309 184.099 95.5452C186.142 95.574 188.199 95.5093 190.235 95.7179C190.364 95.7466 190.501 95.7754 190.63 95.8114C191.781 96.1278 193.032 95.6172 193.637 94.5886C193.996 93.9773 194.097 93.2221 193.903 92.5388C193.708 91.8411 193.27 91.3448 192.68 90.9492C192.191 90.604 191.63 90.4026 191.062 90.23Z" fill="#FFD34E"/>
<path d="M155.948 116.317C155.106 116.547 154.373 117.116 153.934 117.864C153.481 118.64 153.351 119.59 153.596 120.46C153.819 121.266 154.387 122.086 155.149 122.474C158.954 124.445 162.759 126.415 166.564 128.379C168.729 129.494 170.887 130.623 173.073 131.688C174.727 132.486 176.382 133.349 178.108 133.975C178.669 134.126 179.23 134.126 179.784 133.975C180.575 133.759 181.258 133.227 181.668 132.522C182.546 131.026 182.006 129.084 180.532 128.199C179.252 127.43 177.921 126.754 176.605 126.049C175.339 125.373 174.066 124.718 172.8 124.049C170.225 122.697 167.636 121.366 165.054 120.021C162.881 118.892 160.709 117.77 158.537 116.648C157.983 116.36 157.401 116.188 156.797 116.188C156.53 116.202 156.243 116.238 155.948 116.317Z" fill="#FFD34E"/>
<path d="M141.419 154.804C142.117 155.934 142.822 157.056 143.534 158.178C144.095 159.062 144.67 159.94 145.246 160.81C145.512 161.206 145.778 161.601 146.058 161.997C146.497 162.63 146.957 163.277 147.482 163.838C148.367 164.795 149.921 164.939 151.021 164.298C152.373 163.507 152.906 161.659 152.071 160.299C151.294 159.034 150.568 157.732 149.82 156.451C149.187 155.358 148.547 154.272 147.907 153.186C146.533 150.877 145.166 148.576 143.843 146.238C142.333 143.562 140.836 140.88 139.362 138.182C138.801 137.154 137.686 136.593 136.564 136.593C136.003 136.593 135.442 136.73 134.946 137.024C134.227 137.449 133.687 138.146 133.464 138.952C133.227 139.808 133.371 140.671 133.788 141.441C135.629 144.821 137.528 148.166 139.42 151.517C140.045 152.625 140.75 153.711 141.419 154.804Z" fill="#FFD34E"/>
<path d="M115.476 170.002C115.094 167.808 114.749 165.607 114.404 163.407C114.246 161.738 114.087 160.069 113.922 158.408C113.828 157.444 113.735 156.487 113.649 155.524C113.512 154.064 113.462 152.603 113.375 151.136C113.332 150.431 113.124 149.798 112.613 149.288C112.124 148.799 111.455 148.518 110.764 148.518C110.074 148.518 109.405 148.799 108.916 149.288C108.449 149.755 108.11 150.467 108.154 151.136C108.233 152.517 108.269 153.905 108.398 155.279C108.456 155.934 108.52 156.595 108.578 157.25C108.751 159.113 108.923 160.983 109.096 162.846C109.204 164.054 109.398 165.248 109.585 166.442C109.801 167.823 109.988 169.204 110.232 170.577C110.47 171.93 110.7 173.289 110.966 174.641C111.261 176.123 111.52 177.633 112.002 179.072C112.217 179.705 112.57 180.237 113.16 180.582C113.742 180.92 114.454 181.014 115.102 180.834C115.734 180.661 116.281 180.237 116.612 179.676C116.964 179.072 117.015 178.403 116.864 177.734C116.583 176.483 116.382 175.209 116.166 173.951C115.929 172.627 115.706 171.311 115.476 170.002Z" fill="#FFD34E"/>
<path d="M72.0831 172.361C72.2629 171.556 72.4643 170.772 72.6873 169.98C72.8311 169.448 72.9822 168.909 73.126 168.377C73.3202 167.665 73.5576 166.96 73.7805 166.248C74.4854 164.025 75.3125 161.846 76.2044 159.695C76.6719 158.602 77.2042 157.53 77.8947 156.566C78.2831 156.106 78.7218 155.689 79.1893 155.308C79.3116 155.221 79.4339 155.135 79.5561 155.049C79.7072 154.941 79.8942 154.883 80.0596 154.804C80.4552 154.632 80.7573 154.15 80.8652 153.761C80.9874 153.308 80.9227 152.819 80.6854 152.409C80.4552 152.021 80.074 151.726 79.6424 151.604C79.4842 151.582 79.3331 151.56 79.1749 151.539C78.8584 151.539 78.5636 151.618 78.2902 151.776C77.9738 151.913 77.7076 152.071 77.4271 152.273C77.0675 152.531 76.7151 152.812 76.377 153.1C75.7081 153.668 75.1615 154.358 74.658 155.078C73.7158 156.43 73.1044 157.991 72.4859 159.508C71.8889 160.983 71.2776 162.443 70.7525 163.946C70.3497 165.09 69.9613 166.24 69.5945 167.398C69.2133 168.592 68.8177 169.786 68.4868 170.995C68.3286 171.577 68.156 172.153 68.0265 172.742C67.9474 173.088 67.8683 173.426 67.7892 173.771C67.6957 174.181 67.6453 174.605 67.595 175.022C67.5446 175.447 67.5159 175.85 67.5446 176.274C67.5878 176.828 67.7388 177.31 68.1416 177.72C68.5228 178.101 69.0479 178.317 69.5873 178.317C70.1268 178.317 70.6446 178.101 71.0258 177.72C71.2776 177.468 71.4574 177.166 71.5509 176.821C71.6372 176.49 71.6443 176.159 71.5724 175.821C71.5508 175.454 71.5796 175.087 71.6228 174.713C71.7666 173.922 71.9105 173.145 72.0831 172.361Z" fill="#FFD34E"/>
<path d="M33.1285 156.192C33.4162 156.358 33.7326 156.444 34.0707 156.444C34.4087 156.444 34.718 156.358 35.0129 156.192C36.1493 155.675 37.0268 154.718 37.9187 153.862C38.415 153.387 38.904 152.913 39.3931 152.438C40.3713 151.489 41.3711 150.561 42.3636 149.619C43.4281 148.612 44.5214 147.641 45.6075 146.648C46.4706 145.857 47.3409 145.08 48.2112 144.296C49.0167 143.57 49.8295 142.843 50.635 142.124C51.9656 140.93 53.2963 139.736 54.6988 138.636C54.9577 138.441 55.2095 138.24 55.454 138.024C55.5331 137.952 55.6123 137.88 55.6986 137.808C55.7202 137.83 55.7345 137.852 55.7561 137.873C55.9143 138.031 56.1229 138.118 56.3387 138.118C56.5401 138.118 56.7918 138.039 56.9213 137.873C57.1658 137.571 57.4032 137.276 57.6477 136.974C57.7916 136.794 57.8923 136.622 57.8923 136.377C57.8923 136.161 57.806 135.931 57.6477 135.78C57.4463 135.586 57.2449 135.406 56.9644 135.327C56.8709 135.298 56.7774 135.291 56.6767 135.291C56.4034 135.291 56.1301 135.377 55.8927 135.471C55.2023 135.759 54.6485 136.262 54.0659 136.722C53.7494 136.953 53.4329 137.175 53.1164 137.406C52.7352 137.686 52.3684 137.974 52.0016 138.262C51.2104 138.88 50.4408 139.52 49.6641 140.16C49.1894 140.549 48.7146 140.937 48.2399 141.333C46.9884 142.368 45.7369 143.404 44.4854 144.44C42.3421 146.209 40.1771 147.964 38.005 149.698C37.9331 149.755 37.8683 149.806 37.8036 149.863C37.2714 150.266 36.7463 150.676 36.2141 151.079C35.9048 151.316 35.5883 151.539 35.279 151.769C34.8259 152.1 34.38 152.431 33.8765 152.69C33.7758 152.726 33.6751 152.754 33.5672 152.783C32.589 153.057 31.9921 154.099 32.2654 155.078C32.402 155.538 32.7113 155.948 33.1285 156.192Z" fill="#FFD34E"/>
<path d="M21.3402 124.804C27.9429 123.531 34.5384 122.244 41.1483 121.035C41.7956 120.92 42.407 120.374 42.7235 119.827C43.0831 119.216 43.1766 118.475 42.9896 117.799C42.8098 117.137 42.3639 116.569 41.7741 116.224C41.3497 115.979 40.9326 115.886 40.4866 115.886C40.2421 115.886 39.9975 115.914 39.7386 115.958C35.8043 116.677 31.87 117.418 27.9429 118.173C26.0297 118.54 24.1165 118.914 22.2105 119.281C21.4121 119.432 20.6137 119.575 19.8225 119.741C16.9312 120.352 14.047 120.971 11.1556 121.589C10.1271 121.812 9.09852 122.042 8.06999 122.273C7.32197 122.438 6.58115 122.603 5.83313 122.769C4.68953 123.021 3.56029 123.301 2.40229 123.474C2.2081 123.503 2.01391 123.524 1.8269 123.553C1.40254 123.668 1.04292 123.884 0.72645 124.193C0.26613 124.653 0 125.293 0 125.948C0 126.602 0.26613 127.243 0.72645 127.703C1.20835 128.185 1.81252 128.401 2.48142 128.429C4.04939 128.494 5.63893 128.127 7.17093 127.804C7.97649 127.631 8.78206 127.458 9.58762 127.286C10.6593 127.056 11.7238 126.833 12.7955 126.602C14.5648 126.228 16.3414 125.854 18.1107 125.473C19.1896 125.257 20.2613 125.013 21.3402 124.804Z" fill="#FFD34E"/>
<path d="M16.262 91.1218C17.643 91.4815 19.0599 91.6972 20.4696 91.9202C21.7643 92.1288 23.0661 92.3302 24.3608 92.5244C27.2666 92.9631 30.1723 93.4091 33.0853 93.855C35.7034 94.2578 38.3143 94.6678 40.9323 95.0777C41.1337 95.1065 41.3423 95.1353 41.5437 95.164C41.9609 95.164 42.3493 95.0561 42.7089 94.8476C43.2267 94.5455 43.6079 94.0492 43.7662 93.4738C43.9316 92.8768 43.8453 92.2295 43.536 91.6972C43.2627 91.2297 42.7161 90.7263 42.1622 90.64C35.6099 89.6042 29.0647 88.5397 22.4836 87.7054C20.5991 87.4681 18.7147 87.2091 16.8231 87.0581C16.449 87.0581 16.1038 87.1516 15.7801 87.3386C15.3198 87.6119 14.9746 88.0578 14.8307 88.5757C14.5214 89.6474 15.1688 90.8413 16.262 91.1218Z" fill="#FFD34E"/>
<path d="M15.9746 48.0171C16.3773 48.3336 16.7873 48.5925 17.2261 48.8587C17.7727 49.1895 18.3481 49.4628 18.9163 49.7577C19.6715 50.1461 20.4339 50.5345 21.1891 50.9301C22.4622 51.5846 23.7712 52.1888 25.0587 52.8145C26.1879 53.3612 27.3172 53.9078 28.4392 54.4472C29.4605 54.9435 30.5034 55.411 31.5104 55.9505C33.1071 56.7992 34.7039 57.6479 36.2934 58.5038C38.4871 59.669 40.6377 60.9421 42.6228 62.4381C44.6295 64.0349 46.4205 65.8618 48.1323 67.7678C48.7724 68.4798 49.9664 68.4151 50.6137 67.7678C50.9446 67.4369 51.1315 66.991 51.1315 66.5235C51.1315 66.0416 50.9374 65.6388 50.6137 65.2864C49.3262 63.8479 48.0028 62.4525 46.5787 61.1579C45.0755 59.7913 43.4499 58.5901 41.7381 57.4969C40.8175 56.9071 39.8825 56.3173 38.9259 55.7922C38.1994 55.3895 37.473 54.9939 36.7465 54.5911C35.8906 54.1164 35.0347 53.6489 34.1716 53.1742C33.7832 52.9584 33.3948 52.7282 32.992 52.5269C31.6039 51.8364 30.2301 51.1243 28.8492 50.4266C27.3028 49.6427 25.7564 48.8371 24.2172 48.0387C23.6202 47.7294 23.0376 47.413 22.4478 47.0821C22.4766 47.0821 22.5054 47.0749 22.5413 47.0749C23.0736 47.039 23.5411 46.8879 23.9295 46.4995C24.2963 46.1327 24.5049 45.6292 24.5049 45.1114C24.5049 44.0757 23.6346 43.1478 22.5845 43.1478C22.5701 43.1478 22.5557 43.1478 22.5413 43.1478C21.8868 43.1622 21.2323 43.1982 20.5778 43.2557C20.2325 43.2845 19.8801 43.3204 19.5349 43.3492C18.9667 43.3996 18.3985 43.4499 17.8302 43.529C17.3268 43.5938 16.8593 43.7376 16.3702 43.8815C15.8523 44.0397 15.4064 44.3634 15.1331 44.8381C14.9461 45.1617 14.8525 45.507 14.8525 45.8882C14.8525 46.2622 14.9461 46.6146 15.1331 46.9311C15.3488 47.3482 15.6006 47.7223 15.9746 48.0171Z" fill="#FFD34E"/>
<path d="M50.2754 31.9491C50.6278 32.5029 50.9515 33.0855 51.3327 33.6178C52.2677 34.9412 53.1811 36.2718 54.1449 37.5736C55.3748 39.2279 56.6191 40.8822 57.921 42.4789C59.1581 44.0037 60.4744 45.4638 61.8122 46.8951C63.1572 48.3336 64.5381 49.7362 65.9263 51.1243C67.3144 52.5125 68.7673 53.8359 70.2058 55.1737C70.6158 55.5549 71.1121 55.7851 71.6803 55.7851C72.2269 55.7851 72.7663 55.5621 73.1547 55.1737C73.9387 54.3897 73.9819 53.0016 73.1547 52.232C72.0039 51.1603 70.8316 50.1102 69.7167 49.0097C68.5443 47.8445 67.3863 46.665 66.2427 45.4782C64.085 43.2341 62.0063 40.9181 60.0931 38.4655C59.1365 37.2212 58.1799 35.9697 57.288 34.6822C56.7126 33.8551 56.1373 33.0352 55.5619 32.208C55.2094 31.7045 54.8714 31.2083 54.5477 30.6904C53.9507 29.7554 53.3394 28.8419 52.8503 27.8494C52.8431 27.8134 52.8287 27.7846 52.8215 27.7487C52.764 27.2524 52.6057 26.8208 52.2389 26.4468C51.8577 26.0656 51.3327 25.8427 50.786 25.8427C50.2466 25.8427 49.7143 26.0584 49.3331 26.4468C48.9376 26.8496 48.7577 27.3459 48.729 27.8997C48.6786 28.9714 49.1605 29.9424 49.6496 30.863C49.8366 31.2442 50.0524 31.5967 50.2754 31.9491Z" fill="#FFD34E"/>
<path d="M67.6455 4.19323C67.7031 4.60321 67.8469 5.00598 67.9764 5.39438C68.1562 5.93382 68.372 6.47325 68.5878 6.99831C68.9258 7.81825 69.2566 8.63101 69.5947 9.45095C70.1413 10.7888 70.7167 12.1122 71.2921 13.4428C72.3494 15.8954 73.3995 18.3481 74.4496 20.8079C75.284 22.7643 76.1183 24.7278 76.9526 26.6842C77.7798 29.0577 78.6141 31.4313 79.4484 33.8048C79.9519 35.2361 80.4482 36.6746 80.9517 38.1059C81.5127 39.7026 81.9155 41.3353 82.3542 42.9608C82.721 44.313 84.1667 45.1258 85.5189 44.759C86.8711 44.385 87.6767 42.9465 87.317 41.5943C86.9574 40.2708 86.6769 38.9043 86.2238 37.6024C86.0727 37.1637 85.9217 36.7321 85.7707 36.2934C85.1593 34.5312 84.5551 32.7691 83.9437 31.0141C83.3755 29.3814 82.8145 27.7415 82.2463 26.1088C82.0449 25.519 81.822 24.9508 81.5846 24.3682C80.2684 21.2107 78.9593 18.0532 77.6431 14.8957C76.7368 12.7235 75.8234 10.5586 74.9675 8.36489C74.6438 7.53775 74.3202 6.70341 74.0037 5.87628C73.6297 4.91248 73.2197 3.94868 72.9824 2.94173C72.9824 2.86261 72.9896 2.7835 72.9968 2.70438C72.9968 2.21529 72.8745 1.76216 72.6299 1.33781C72.2775 0.733636 71.6877 0.280506 71.0116 0.0935006C70.7887 0.028768 70.5585 0 70.3211 0C69.1344 0 67.962 0.776791 67.6815 1.97794C67.6096 2.29441 67.4945 2.79069 67.5161 3.0712C67.5305 3.4524 67.588 3.82641 67.6455 4.19323Z" fill="#FFD34E"/>
</svg>
