<svg width="131" height="80" viewBox="0 0 131 80" fill="none" xmlns="http://www.w3.org/2000/svg">
<path d="M124.754 20.6463L115.754 31.6507L106.825 20.6463H100.671V29.4149C100.6 29.1703 100.493 28.9607 100.387 28.7162C99.6396 27.0044 98.5724 25.4323 97.1139 24.1048C95.691 22.8122 94.0902 21.8341 92.3116 21.2053C90.5329 20.5764 88.5053 20.2271 86.2997 20.2271C84.0942 20.2271 82.1021 20.5415 80.3235 21.1703C78.5448 21.7991 76.944 22.7773 75.5211 24.0699C74.0626 25.4323 72.9954 26.9695 72.2484 28.6812C72.0705 29.0655 71.9282 29.4847 71.8215 29.904C71.6436 29.3101 71.3946 28.7511 71.11 28.1922C70.1851 26.3756 68.8333 24.7686 67.0547 23.476C65.6673 22.4629 64.1733 21.7293 62.5013 21.2751C60.865 20.821 58.5527 20.6114 55.5646 20.6114H45.1061V47.9651H55.5646C58.4104 47.9651 60.5448 47.7904 62.0033 47.476C63.4618 47.1616 64.778 46.6376 65.9519 45.869C68.0507 44.5415 69.6871 42.8647 70.7899 40.8734C71.1812 40.1398 71.5013 39.4061 71.7859 38.6376C71.9282 39.0568 72.0705 39.476 72.2484 39.8952C72.9954 41.607 74.0626 43.1441 75.5211 44.4716C76.944 45.7992 78.5448 46.7773 80.3235 47.4411C82.1021 48.1048 84.0942 48.4193 86.2642 48.4193C88.4697 48.4193 90.4618 48.1048 92.2404 47.4411C94.0547 46.7773 95.6554 45.7992 97.0784 44.5066C98.5013 43.1791 99.6041 41.642 100.351 39.9302C100.458 39.6856 100.529 39.476 100.636 39.2315V47.9651H107.537V31.0568L115.754 41.083L124.043 31.0568V48H130.908V20.6463H124.754ZM63.1061 40.2096C61.612 41.7118 59.6911 42.4804 57.3077 42.4804H52.114V26.166H57.3077C59.6555 26.166 61.612 26.9345 63.1061 28.4367C64.6001 29.9389 65.3472 31.8952 65.3472 34.3057C65.3472 36.7162 64.6001 38.6725 63.1061 40.2096ZM92.0626 40.3843C90.5685 41.9564 88.6476 42.7249 86.3353 42.7249C84.023 42.7249 82.1021 41.9564 80.608 40.3843C79.114 38.8123 78.3669 36.821 78.3669 34.3756C78.3669 31.9302 79.114 29.904 80.608 28.3319C82.1021 26.7598 84.023 25.9564 86.3353 25.9564C88.6476 25.9564 90.5685 26.7598 92.0626 28.3319C93.5566 29.904 94.3037 31.9302 94.3037 34.3756C94.3037 36.7861 93.5566 38.8123 92.0626 40.3843ZM45.9243 6.60262L44.11 0L17.2168 7.09171L19.031 13.6943L45.9243 6.60262Z" fill="white"/>
<path d="M40.2687 24.0353C40.1976 23.1968 40.0909 22.3933 39.9842 21.5549L39.5928 19.0745L39.2015 17.1182L51.6166 10.2711L52.1146 9.99157L51.9723 9.46756L49.9802 2.09637L49.8023 1.43262L49.1264 1.60729L45.6759 2.51559L46.0316 3.87803L48.8063 3.14441L50.4782 9.29288L38.0632 16.1401L37.6363 16.3846L37.7075 16.9086L38.1344 19.3191L38.4189 21.7296L38.5968 24.1401C38.6324 24.9435 38.6679 25.747 38.6679 26.5505C38.6324 27.354 38.6679 28.1575 38.6324 28.961C38.5612 29.7645 38.5612 30.568 38.4545 31.3715C38.3478 32.175 38.3122 32.9785 38.1699 33.782C38.0276 34.5855 37.9565 35.389 37.7786 36.1575C37.4585 37.7296 37.1027 39.3016 36.6403 40.8388C36.3913 41.6073 36.2134 42.3759 35.9288 43.1444C35.6442 43.913 35.3952 44.6816 35.0751 45.4152C34.7549 46.1488 34.4703 46.9174 34.1146 47.6161C33.7944 48.3497 33.4387 49.0833 33.083 49.782L32.5138 50.865C32.3359 51.2143 32.1225 51.5637 31.9091 51.913L31.3043 52.961C31.0909 53.3104 30.8774 53.6248 30.664 53.9741L30.0237 54.9872L29.3122 55.9654L28.6008 56.9436L27.8537 57.8868L27.1067 58.83L26.3241 59.7383C26.0751 60.0527 25.7905 60.3322 25.5415 60.6466L24.7233 61.52C24.4387 61.7995 24.1897 62.1139 23.9051 62.3934L23.0514 63.2318C22.7668 63.5113 22.4822 63.7907 22.162 64.0702L21.2371 64.8737C20.917 65.1182 20.6324 65.3977 20.3122 65.6423L19.3518 66.3759C19.0316 66.6204 18.7114 66.865 18.3913 67.1095L17.3952 67.8082L16.3992 68.5069L15.3676 69.1707L14.3715 69.8344L13.3399 70.4283L12.3083 71.0222C11.9526 71.2318 11.5968 71.4065 11.2411 71.5811C10.5296 71.9654 9.81817 72.3148 9.07114 72.6292C8.3241 72.9436 7.61264 73.3279 6.86561 73.6073L5.76284 74.0615L5.19367 74.2711C5.01581 74.341 4.83794 74.4108 4.6245 74.4807L3.52174 74.865L2.95257 75.0746L2.66798 75.1794L2.3834 75.2842L0 75.9829L1.35178 80.0004L3.73517 79.1969C3.91304 79.127 4.12648 79.0571 4.33992 78.9873L4.94466 78.7427L6.18972 78.2536C6.40316 78.1838 6.6166 78.1139 6.79446 78.0091L7.3992 77.7645L8.57312 77.2405C9.35572 76.8912 10.1383 76.5069 10.9209 76.1226C11.7035 75.7383 12.4506 75.3191 13.1976 74.8999C13.5889 74.6903 13.9447 74.4807 14.336 74.2711L15.4387 73.5724L16.5415 72.8737L17.6087 72.1401L18.6759 71.4065L19.7075 70.6379L20.668 69.8693C20.9881 69.5899 21.3083 69.3104 21.664 69.0309L22.6601 68.1925C22.9802 67.913 23.3004 67.5986 23.6205 67.3191L24.5454 66.4458C24.8656 66.1313 25.1502 65.8519 25.4348 65.5375L26.3241 64.6292C26.6087 64.3148 26.8933 64.0003 27.1778 63.6859L28.0316 62.7427C28.3162 62.4283 28.5652 62.0789 28.8498 61.7645L29.6324 60.7864L30.3794 59.7733L31.1265 58.7252L31.8379 57.6772L32.5494 56.6292L33.1897 55.5462C33.4031 55.1968 33.6166 54.8126 33.83 54.4632L34.4347 53.3453C34.6126 52.961 34.8261 52.6117 35.0039 52.2274L35.5375 51.0746C35.9288 50.306 36.249 49.5375 36.5691 48.7689C36.9249 48.0003 37.1739 47.1968 37.4585 46.3933C37.7786 45.6248 37.9921 44.7864 38.2411 43.9829C38.5257 43.1794 38.7035 42.3759 38.917 41.5374C39.3438 39.8955 39.664 38.2536 39.913 36.6117C40.0553 35.7733 40.1264 34.9348 40.2332 34.1313C40.3399 33.2929 40.3755 32.4545 40.4466 31.616C40.4822 30.7776 40.4822 29.9392 40.5177 29.1008C40.5177 28.2623 40.4822 27.4239 40.4822 26.5855C40.411 25.7121 40.3399 24.8737 40.2687 24.0353Z" fill="black"/>
</svg>
