<svg width="73" height="18" viewBox="0 0 73 18" fill="none" xmlns="http://www.w3.org/2000/svg">
<path d="M67.0422 17.0013C70.3328 17.0013 73.0003 14.2806 73.0003 10.9245C73.0003 7.56834 70.3328 4.84766 67.0422 4.84766C63.7515 4.84766 61.084 7.56834 61.084 10.9245C61.084 14.2806 63.7515 17.0013 67.0422 17.0013Z" fill="#F92740"/>
<path d="M48.2066 4.87149C48.6743 3.36485 50.0777 2.25997 51.7027 2.25997H58.5472C59.1627 2.25997 59.6551 1.75776 59.6551 1.12999C59.6551 0.502216 59.1627 0 58.5472 0H51.7027C48.4528 0 45.8184 2.68685 45.8184 6.00148V7.13146H57.2669C56.7991 8.68833 55.3711 9.81832 53.7708 9.81832H46.9509C46.3354 9.81832 45.843 10.3205 45.843 10.9483C45.843 11.5761 46.3354 12.0783 46.9509 12.0783H53.7708C57.0207 12.0783 59.6551 9.34121 59.6551 6.00148V4.87149H48.2066Z" fill="black"/>
<path d="M38.4817 0H36.4382C33.1883 0 30.5293 2.68685 30.5293 6.00148V10.9734C30.5293 11.6012 31.0217 12.1034 31.6372 12.1034C32.2527 12.1034 32.7451 11.6012 32.7451 10.9734V7.13146H42.1502V10.9734C42.1502 11.6012 42.6426 12.1034 43.2581 12.1034C43.8736 12.1034 44.3661 11.6012 44.3661 10.9734V6.00148C44.3661 2.68685 41.7317 0 38.4817 0ZM32.9175 4.87149C33.3853 3.36485 34.7887 2.25997 36.4136 2.25997H38.4571C40.1067 2.25997 41.4855 3.36485 41.9532 4.87149H32.9175Z" fill="black"/>
<path d="M29.1024 6.00148C29.1024 2.68685 26.468 0 23.2181 0H21.1746C17.9246 0 15.2656 2.68685 15.2656 6.00148V10.9734C15.2656 11.6012 15.758 12.1034 16.3736 12.1034C16.9891 12.1034 17.4815 11.6012 17.4815 10.9734V7.13146H21.4454L27.3051 11.8523C27.5021 12.0281 27.7483 12.1034 27.9945 12.1034C28.3145 12.1034 28.6346 11.9527 28.8562 11.6765C29.2255 11.1994 29.1516 10.4712 28.6838 10.0945L25.0154 7.13146H29.1024V6.00148ZM17.6538 4.87149C18.1216 3.36485 19.525 2.25997 21.1746 2.25997H23.2181C24.8676 2.25997 26.2464 3.36485 26.7142 4.87149H17.6538Z" fill="black"/>
<path d="M7.92782 0H1.10793C0.492411 0 0 0.502216 0 1.12999C0 1.75775 0.492411 2.25997 1.10793 2.25997H7.92782C9.5774 2.25997 10.9562 3.36485 11.4239 4.87149H2.16661H0V10.9734C0 11.6012 0.492411 12.1034 1.10793 12.1034C1.72344 12.1034 2.21585 11.6012 2.21585 10.9734V7.13146H13.8368V6.00148C13.8368 2.68685 11.1777 0 7.92782 0Z" fill="black"/>
</svg>
