<svg width="81" height="78" viewBox="0 0 81 78" fill="none" xmlns="http://www.w3.org/2000/svg">
<path fill-rule="evenodd" clip-rule="evenodd" d="M43.5752 0C64.5674 0 81 17.5936 81 38.5858C81 59.5518 64.5413 77.0783 43.5752 77.0783C20.8694 77.0783 0 61.2916 0 38.5858C0 15.8559 20.8453 0 43.5752 0Z" fill="#EBF3FE"/>
<path d="M53.2 40.25C53.8903 40.25 54.45 39.6904 54.45 39C54.45 38.3096 53.8903 37.75 53.2 37.75L53.2 40.25ZM25.3161 38.1161C24.8279 38.6043 24.8279 39.3957 25.3161 39.8839L33.271 47.8388C33.7592 48.327 34.5506 48.327 35.0388 47.8388C35.5269 47.3507 35.5269 46.5592 35.0388 46.0711L27.9677 39L35.0388 31.9289C35.5269 31.4408 35.5269 30.6493 35.0388 30.1612C34.5506 29.673 33.7592 29.673 33.271 30.1612L25.3161 38.1161ZM53.2 37.75L26.1999 37.75L26.1999 40.25L53.2 40.25L53.2 37.75Z" fill="#2F80ED"/>
</svg>
