<svg width="352" height="698" viewBox="0 0 352 698" fill="none" xmlns="http://www.w3.org/2000/svg">
<g filter="url(#filter0_i_40_1579)">
<rect x="8.03205" y="8.03205" width="335.051" height="681.577" rx="58.5192" stroke="white" stroke-width="16.0641"/>
</g>
<path d="M284.564 11.4742L66.5514 11.4742C36.1332 11.4742 11.4745 36.133 11.4745 66.5512L11.4745 633.384C11.4745 660.634 33.5646 682.724 60.8142 682.724L290.301 682.724C317.551 682.724 339.641 660.634 339.641 633.384L339.641 66.5511C339.641 36.133 314.982 11.4742 284.564 11.4742Z" stroke="white" stroke-width="9.17949"/>
<g filter="url(#filter1_i_40_1579)">
<rect x="14.343" y="14.3427" width="322.429" height="665.513" rx="52.2083" stroke="white" stroke-width="3.44231"/>
</g>
<path d="M284.564 14.9165L66.5514 14.9165C38.0344 14.9165 14.9168 38.0341 14.9168 66.5512L14.9168 627.647C14.9168 656.164 38.0344 679.282 66.5514 679.282L284.564 679.282C313.081 679.282 336.199 656.164 336.199 627.647L336.199 66.5511C336.199 38.0341 313.081 14.9165 284.564 14.9165Z" stroke="white" stroke-width="2.29487"/>
<defs>
<filter id="filter0_i_40_1579" x="0" y="-1.14744" width="351.115" height="698.789" filterUnits="userSpaceOnUse" color-interpolation-filters="sRGB">
<feFlood flood-opacity="0" result="BackgroundImageFix"/>
<feBlend mode="normal" in="SourceGraphic" in2="BackgroundImageFix" result="shape"/>
<feColorMatrix in="SourceAlpha" type="matrix" values="0 0 0 0 0 0 0 0 0 0 0 0 0 0 0 0 0 0 127 0" result="hardAlpha"/>
<feMorphology radius="0.114744" operator="erode" in="SourceAlpha" result="effect1_innerShadow_40_1579"/>
<feOffset dy="-1.14744"/>
<feGaussianBlur stdDeviation="2.29487"/>
<feComposite in2="hardAlpha" operator="arithmetic" k2="-1" k3="1"/>
<feColorMatrix type="matrix" values="0 0 0 0 0 0 0 0 0 0 0 0 0 0 0 0 0 0 0.25 0"/>
<feBlend mode="normal" in2="shape" result="effect1_innerShadow_40_1579"/>
</filter>
<filter id="filter1_i_40_1579" x="12.6218" y="12.0479" width="325.872" height="669.529" filterUnits="userSpaceOnUse" color-interpolation-filters="sRGB">
<feFlood flood-opacity="0" result="BackgroundImageFix"/>
<feBlend mode="normal" in="SourceGraphic" in2="BackgroundImageFix" result="shape"/>
<feColorMatrix in="SourceAlpha" type="matrix" values="0 0 0 0 0 0 0 0 0 0 0 0 0 0 0 0 0 0 127 0" result="hardAlpha"/>
<feMorphology radius="0.114744" operator="erode" in="SourceAlpha" result="effect1_innerShadow_40_1579"/>
<feOffset dy="-0.573718"/>
<feGaussianBlur stdDeviation="0.573718"/>
<feComposite in2="hardAlpha" operator="arithmetic" k2="-1" k3="1"/>
<feColorMatrix type="matrix" values="0 0 0 0 0 0 0 0 0 0 0 0 0 0 0 0 0 0 0.25 0"/>
<feBlend mode="normal" in2="shape" result="effect1_innerShadow_40_1579"/>
</filter>
</defs>
</svg>
