<svg width="469" height="918" viewBox="0 0 469 918" fill="none" xmlns="http://www.w3.org/2000/svg">
<g filter="url(#filter0_i_40_1584)">
<rect x="66.5513" y="118.186" width="335.051" height="681.577" rx="58.5192" stroke="white" stroke-width="16.0641"/>
</g>
<path d="M343.083 121.628L125.071 121.628C94.6524 121.628 69.9936 146.287 69.9936 176.705L69.9936 743.539C69.9936 770.788 92.0838 792.878 119.333 792.878L348.821 792.878C376.07 792.878 398.16 770.788 398.16 743.539L398.16 176.705C398.16 146.287 373.502 121.628 343.083 121.628Z" stroke="white" stroke-width="9.17949"/>
<g filter="url(#filter1_i_40_1584)">
<rect x="72.8623" y="124.497" width="322.429" height="665.513" rx="52.2083" stroke="white" stroke-width="3.44231"/>
</g>
<path d="M343.083 125.071L125.071 125.071C96.5535 125.071 73.4359 148.188 73.4359 176.705L73.4359 737.801C73.4359 766.318 96.5535 789.436 125.071 789.436L343.083 789.436C371.6 789.436 394.718 766.318 394.718 737.801L394.718 176.705C394.718 148.188 371.6 125.071 343.083 125.071Z" stroke="white" stroke-width="2.29487"/>
<mask id="mask0_40_1584" style="mask-type:alpha" maskUnits="userSpaceOnUse" x="0" y="0" width="469" height="918">
<path fill-rule="evenodd" clip-rule="evenodd" d="M468.154 7.19175e-08L1.41014e-07 0L0 917.949H468.154V7.19175e-08ZM125.071 110.154C88.3153 110.154 58.5192 139.95 58.5192 176.705V741.244C58.5192 777.999 88.3153 807.795 125.071 807.795H343.083C379.839 807.795 409.635 777.999 409.635 741.244V176.705C409.635 139.95 379.839 110.154 343.083 110.154H125.071Z" fill="#C4C4C4"/>
</mask>
<g mask="url(#mask0_40_1584)">
<g filter="url(#filter2_f_40_1584)">
<path d="M74.5834 169.821L393.571 169.821L393.571 841.071L74.5834 841.071L74.5834 169.821Z" fill="black" fill-opacity="0.2"/>
</g>
</g>
<defs>
<filter id="filter0_i_40_1584" x="58.5193" y="109.006" width="351.115" height="698.789" filterUnits="userSpaceOnUse" color-interpolation-filters="sRGB">
<feFlood flood-opacity="0" result="BackgroundImageFix"/>
<feBlend mode="normal" in="SourceGraphic" in2="BackgroundImageFix" result="shape"/>
<feColorMatrix in="SourceAlpha" type="matrix" values="0 0 0 0 0 0 0 0 0 0 0 0 0 0 0 0 0 0 127 0" result="hardAlpha"/>
<feMorphology radius="0.114744" operator="erode" in="SourceAlpha" result="effect1_innerShadow_40_1584"/>
<feOffset dy="-1.14744"/>
<feGaussianBlur stdDeviation="2.29487"/>
<feComposite in2="hardAlpha" operator="arithmetic" k2="-1" k3="1"/>
<feColorMatrix type="matrix" values="0 0 0 0 0 0 0 0 0 0 0 0 0 0 0 0 0 0 0.25 0"/>
<feBlend mode="normal" in2="shape" result="effect1_innerShadow_40_1584"/>
</filter>
<filter id="filter1_i_40_1584" x="71.1411" y="122.202" width="325.872" height="669.529" filterUnits="userSpaceOnUse" color-interpolation-filters="sRGB">
<feFlood flood-opacity="0" result="BackgroundImageFix"/>
<feBlend mode="normal" in="SourceGraphic" in2="BackgroundImageFix" result="shape"/>
<feColorMatrix in="SourceAlpha" type="matrix" values="0 0 0 0 0 0 0 0 0 0 0 0 0 0 0 0 0 0 127 0" result="hardAlpha"/>
<feMorphology radius="0.114744" operator="erode" in="SourceAlpha" result="effect1_innerShadow_40_1584"/>
<feOffset dy="-0.573718"/>
<feGaussianBlur stdDeviation="0.573718"/>
<feComposite in2="hardAlpha" operator="arithmetic" k2="-1" k3="1"/>
<feColorMatrix type="matrix" values="0 0 0 0 0 0 0 0 0 0 0 0 0 0 0 0 0 0 0.25 0"/>
<feBlend mode="normal" in2="shape" result="effect1_innerShadow_40_1584"/>
</filter>
<filter id="filter2_f_40_1584" x="5.73722" y="100.974" width="456.679" height="808.942" filterUnits="userSpaceOnUse" color-interpolation-filters="sRGB">
<feFlood flood-opacity="0" result="BackgroundImageFix"/>
<feBlend mode="normal" in="SourceGraphic" in2="BackgroundImageFix" result="shape"/>
<feGaussianBlur stdDeviation="34.4231" result="effect1_foregroundBlur_40_1584"/>
</filter>
</defs>
</svg>
