<svg width="68" height="66" viewBox="0 0 68 66" fill="none" xmlns="http://www.w3.org/2000/svg">
<path fill-rule="evenodd" clip-rule="evenodd" d="M32.9136 0.800049C51.21 0.800049 67.5 14.0594 67.5 32.29C67.5 51.0617 51.7532 65.8 32.9136 65.8C14.5367 65.8 0 50.6007 0 32.29C0 14.5345 15.094 0.800049 32.9136 0.800049Z" fill="#2F80ED" fill-opacity="0.1"/>
<path d="M33.1161 40.6839C33.6043 41.1721 34.3957 41.1721 34.8839 40.6839L42.8388 32.729C43.327 32.2408 43.327 31.4494 42.8388 30.9612C42.3507 30.4731 41.5592 30.4731 41.0711 30.9612L34 38.0323L26.9289 30.9612C26.4408 30.4731 25.6493 30.4731 25.1612 30.9612C24.673 31.4494 24.673 32.2408 25.1612 32.729L33.1161 40.6839ZM35.25 39.4998C35.25 38.8094 34.6904 38.2498 34 38.2498C33.3096 38.2498 32.75 38.8094 32.75 39.4998L35.25 39.4998ZM35.25 39.8V39.4998L32.75 39.4998V39.8L35.25 39.8Z" fill="#2F80ED"/>
</svg>
