<svg width="38" height="38" viewBox="0 0 38 38" fill="none" xmlns="http://www.w3.org/2000/svg">
<circle cx="19" cy="19" r="19" fill="#229ED9"/>
<path fill-rule="evenodd" clip-rule="evenodd" d="M30.875 18.9971C30.875 25.5555 25.5584 30.8721 19 30.8721C12.4416 30.8721 7.125 25.5555 7.125 18.9971C7.125 12.4387 12.4416 7.12207 19 7.12207C25.5584 7.12207 30.875 12.4387 30.875 18.9971ZM19.4212 15.8894C18.2661 16.3698 15.9577 17.3641 12.4959 18.8724C11.9338 19.0959 11.6393 19.3146 11.6125 19.5285C11.5672 19.8898 12.0198 20.0322 12.636 20.2259C12.7199 20.2523 12.8067 20.2796 12.8958 20.3086C13.5021 20.5056 14.3177 20.7362 14.7417 20.7454C15.1263 20.7537 15.5556 20.5951 16.0295 20.2697C19.2639 18.0863 20.9336 16.9828 21.0384 16.959C21.1124 16.9422 21.2149 16.9211 21.2843 16.9828C21.3537 17.0445 21.3469 17.1614 21.3395 17.1927C21.2947 17.3839 19.5182 19.0354 18.5989 19.8901C18.3123 20.1566 18.109 20.3456 18.0675 20.3887C17.9744 20.4854 17.8795 20.5769 17.7883 20.6648C17.225 21.2078 16.8026 21.615 17.8117 22.28C18.2966 22.5995 18.6846 22.8638 19.0718 23.1274C19.4945 23.4153 19.9162 23.7025 20.4618 24.0601C20.6008 24.1512 20.7335 24.2459 20.8628 24.3381C21.3548 24.6888 21.7969 25.0039 22.343 24.9537C22.6603 24.9245 22.988 24.6261 23.1545 23.7362C23.5479 21.6331 24.3212 17.0764 24.4999 15.1987C24.5155 15.0342 24.4959 14.8236 24.48 14.7312C24.4642 14.6388 24.4312 14.5071 24.311 14.4096C24.1688 14.2942 23.9491 14.2698 23.8509 14.2716C23.4042 14.2794 22.719 14.5177 19.4212 15.8894Z" fill="white"/>
</svg>
