<svg width="38" height="38" viewBox="0 0 38 38" fill="none" xmlns="http://www.w3.org/2000/svg">
<circle cx="19" cy="19" r="19" fill="#7360F2"/>
<path fill-rule="evenodd" clip-rule="evenodd" d="M27.8976 9.44153C27.3074 8.89696 24.9223 7.16557 19.6099 7.14205C19.6099 7.14205 13.3451 6.76426 10.2911 9.56556C8.59108 11.2659 7.99304 13.754 7.92996 16.8386C7.86688 19.9232 7.78526 25.704 13.3576 27.2715H13.3629L13.3593 29.6633C13.3593 29.6633 13.3237 30.6316 13.9613 30.829C14.605 31.0289 15.0267 30.5494 15.5766 29.9241C15.6856 29.8002 15.7997 29.6705 15.9215 29.5392C16.3256 29.1037 16.8838 28.464 17.3043 27.975C21.1153 28.2957 24.0463 27.5626 24.3792 27.4543C24.4478 27.432 24.5449 27.4074 24.6654 27.3767L24.6655 27.3767L24.6658 27.3766L24.6659 27.3766C25.8971 27.0635 29.566 26.1306 30.211 20.8666C30.9419 14.9087 29.8574 11.1401 27.8976 9.44153ZM28.5434 20.4393C28.0052 24.785 25.0884 25.4637 24.0375 25.7082L24.0374 25.7082L24.0371 25.7083C23.9211 25.7353 23.8278 25.757 23.763 25.7778C23.4861 25.8669 20.9118 26.5073 17.6746 26.296C17.6746 26.296 15.2625 29.206 14.5091 29.9626C14.3915 30.081 14.2532 30.1287 14.1609 30.1052C14.0312 30.0735 13.9955 29.9199 13.9969 29.6953C13.9991 29.3746 14.0176 25.7208 14.0176 25.7208C9.45964 24.4553 9.56595 19.8132 9.62628 17.1785L9.62629 17.1783C9.62835 17.0883 9.63035 17.0007 9.63212 16.9156C9.68558 14.3392 10.1696 12.2286 11.6073 10.809C14.1905 8.46928 19.5119 8.8189 19.5119 8.8189C24.0057 8.83851 26.1591 10.1918 26.6584 10.6451C28.3163 12.0646 29.161 15.4615 28.5434 20.4379V20.4393ZM19.7011 14.8318C19.7098 14.6661 19.8511 14.5388 20.0168 14.5474C20.6368 14.5797 21.1526 14.7674 21.5199 15.1472C21.8859 15.5256 22.0653 16.0542 22.0968 16.689C22.105 16.8548 21.9773 16.9958 21.8116 17.004C21.6458 17.0122 21.5048 16.8845 21.4966 16.7188C21.4696 16.1754 21.3206 15.8054 21.088 15.565C20.8568 15.326 20.5041 15.1745 19.9855 15.1475C19.8198 15.1388 19.6925 14.9975 19.7011 14.8318ZM19.5673 12.9355C19.4018 12.9234 19.2578 13.0477 19.2457 13.2132C19.2336 13.3787 19.3579 13.5227 19.5234 13.5348C20.6674 13.6185 21.5265 14.0014 22.141 14.6722C22.7575 15.3458 23.06 16.1855 23.0378 17.2143C23.0342 17.3802 23.1657 17.5175 23.3316 17.5211C23.4975 17.5247 23.6349 17.3932 23.6385 17.2273C23.6638 16.0607 23.316 15.066 22.5843 14.2665L22.5842 14.2664C21.8445 13.4589 20.829 13.0278 19.5673 12.9355ZM18.7153 11.6745C18.7165 11.5086 18.8519 11.375 19.0178 11.3762C20.7614 11.3883 22.2352 11.9688 23.4185 13.1223C24.6117 14.2855 25.2018 15.869 25.2167 17.8357C25.218 18.0017 25.0845 18.1372 24.9186 18.1385C24.7527 18.1397 24.6171 18.0062 24.6159 17.8403C24.6018 15.9974 24.0536 14.5805 22.9991 13.5526C21.9347 12.5149 20.6131 11.9882 19.0137 11.977C18.8477 11.9759 18.7142 11.8404 18.7153 11.6745ZM20.7104 20.4835C20.4831 20.7636 20.0607 20.728 20.0607 20.728C16.974 19.94 16.1478 16.8133 16.1478 16.8133C16.1478 16.8133 16.1108 16.391 16.3923 16.1636L16.9501 15.7202C17.2266 15.5071 17.4031 14.99 17.1215 14.4849C16.9056 14.1059 16.6707 13.7378 16.418 13.3822C16.1724 13.0469 15.6004 12.3601 15.5983 12.3579C15.3224 12.0326 14.9168 11.957 14.4891 12.1797C14.4878 12.1797 14.4861 12.1803 14.4844 12.1809C14.4828 12.1814 14.4813 12.1819 14.4802 12.1819C14.0549 12.427 13.6713 12.7383 13.344 13.1042C13.3429 13.1065 13.3418 13.1075 13.3407 13.1086C13.3397 13.1096 13.3386 13.1106 13.3376 13.1124C13.0734 13.4313 12.9222 13.7439 12.8839 14.0501C12.876 14.0953 12.8732 14.1412 12.8757 14.187C12.8743 14.3222 12.8949 14.4568 12.9367 14.5854L12.9513 14.5954C13.0846 15.0687 13.4182 15.8571 14.1431 17.1715C14.5577 17.9317 15.0359 18.6555 15.5726 19.3352C15.8415 19.6759 16.1297 20.0008 16.4358 20.3085C16.4468 20.3195 16.4575 20.3306 16.4686 20.3413L16.5669 20.4396C16.8746 20.7458 17.1996 21.034 17.5403 21.3028C18.22 21.8396 18.9439 22.3178 19.7043 22.7324C21.0184 23.4573 21.8074 23.7909 22.28 23.9242L22.29 23.9388C22.4186 23.9807 22.5532 24.0014 22.6885 24.0001C22.7343 24.0023 22.7802 23.9994 22.8253 23.9915C23.1321 23.9552 23.4444 23.8042 23.7623 23.5385C23.7642 23.5375 23.7651 23.5365 23.7661 23.5355C23.7672 23.5344 23.7683 23.5332 23.7705 23.5321C24.1364 23.2048 24.4479 22.8212 24.6932 22.3959C24.6932 22.3949 24.6936 22.3934 24.694 22.3918C24.6945 22.3901 24.695 22.3883 24.695 22.387C24.9177 21.9593 24.8422 21.5538 24.515 21.2775C24.5146 21.2775 24.4879 21.2556 24.4427 21.2183C24.2573 21.0656 23.7604 20.6561 23.4907 20.4578C23.1355 20.2051 22.7678 19.9703 22.3891 19.7543C21.8837 19.4727 21.3676 19.6492 21.1538 19.9257L20.7104 20.4835Z" fill="white"/>
</svg>
